<?xml version="1.0" encoding="UTF-8"?>
<!DOCTYPE svg PUBLIC "-//W3C//DTD SVG 1.1//EN" "http://www.w3.org/Graphics/SVG/1.1/DTD/svg11.dtd">
<!-- Creator: CorelDRAW (Versión OEM) -->
<svg xmlns="http://www.w3.org/2000/svg" xml:space="preserve" width="11.7311mm" height="11.7311mm" version="1.1" style="shape-rendering:geometricPrecision; text-rendering:geometricPrecision; image-rendering:optimizeQuality; fill-rule:evenodd; clip-rule:evenodd"
viewBox="0 0 44.21 44.21"
 xmlns:xlink="http://www.w3.org/1999/xlink"
 xmlns:xodm="http://www.corel.com/coreldraw/odm/2003">
 <defs>
  <style type="text/css">
   <![CDATA[
    .fil0 {fill:#E6E6E6;fill-rule:nonzero}
   ]]>
  </style>
 </defs>
 <g id="Capa_x0020_1">
  <metadata id="CorelCorpID_0Corel-Layer"/>
  <g id="_3026970971920">
   <g>
    <path class="fil0" d="M22.1 44.21c-12.16,0 -22.1,-9.95 -22.1,-22.1 0,-12.16 9.95,-22.1 22.1,-22.1 12.16,0 22.1,9.95 22.1,22.1 0,12.16 -9.95,22.1 -22.1,22.1zm0 -40.53c-10.13,0 -18.42,8.29 -18.42,18.42 0,10.13 8.29,18.42 18.42,18.42 10.13,0 18.42,-8.29 18.42,-18.42 0,-10.13 -8.29,-18.42 -18.42,-18.42z"/>
   </g>
   <g>
    <path class="fil0" d="M22.84 21.55c-2.03,2.21 -2.58,3.32 -2.76,5.71l4.42 0c0,-0.92 0.37,-1.84 1.84,-3.5 2.03,-2.21 4.42,-4.42 4.42,-7.74 0,-4.97 -3.32,-7.74 -8.47,-7.74 -3.32,0 -6.26,1.29 -8.11,3.32l0 4.61c1.84,-1.84 4.61,-3.68 7.92,-3.68 2.76,0 4.24,1.29 4.24,3.68 0,2.39 -2.03,3.68 -3.5,5.34zm-3.87 11.42c0,1.66 1.29,3.13 2.95,3.13 1.66,0 2.95,-1.29 2.95,-3.13 0,-1.84 -1.29,-3.13 -2.95,-3.13 -1.66,0 -2.95,1.47 -2.95,3.13z"/>
   </g>
  </g>
 </g>
</svg>
