<?xml version="1.0" encoding="UTF-8"?>
<!DOCTYPE svg PUBLIC "-//W3C//DTD SVG 1.1//EN" "http://www.w3.org/Graphics/SVG/1.1/DTD/svg11.dtd">
<!-- Creator: CorelDRAW (Versión OEM) -->
<svg xmlns="http://www.w3.org/2000/svg" xml:space="preserve" width="18.0081mm" height="16.7519mm" version="1.1" style="shape-rendering:geometricPrecision; text-rendering:geometricPrecision; image-rendering:optimizeQuality; fill-rule:evenodd; clip-rule:evenodd"
viewBox="0 0 80.48 74.87"
 xmlns:xlink="http://www.w3.org/1999/xlink"
 xmlns:xodm="http://www.corel.com/coreldraw/odm/2003">
 <defs>
  <style type="text/css">
   <![CDATA[
    .fil0 {fill:#E6E6E6;fill-rule:nonzero}
   ]]>
  </style>
 </defs>
 <g id="Capa_x0020_1">
  <metadata id="CorelCorpID_0Corel-Layer"/>
  <g id="_3027571773152">
   <g>
    <g>
     <path class="fil0" d="M56.66 6.27c-3.57,0 -6.48,2.91 -6.48,6.48 0,3.57 2.91,6.48 6.48,6.48 3.57,0 6.48,-2.91 6.48,-6.48 0,-3.57 -2.91,-6.48 -6.48,-6.48zm0 8.18c-0.94,0 -1.7,-0.76 -1.7,-1.7 0,-0.94 0.76,-1.7 1.7,-1.7 0.94,0 1.7,0.76 1.7,1.7 0,0.94 -0.76,1.7 -1.7,1.7z"/>
    </g>
   </g>
   <g>
    <g>
     <path class="fil0" d="M68.69 17.85c0.47,-1.72 0.72,-3.43 0.72,-5.1 0,-7.03 -5.72,-12.75 -12.75,-12.75 -7.03,0 -12.75,5.72 -12.75,12.75 0,1.67 0.24,3.38 0.72,5.1l-44.62 0 0 57.02 80.48 0 0 -57.02 -11.79 0zm-3.76 7.89c0.05,-0.08 0.1,-0.15 0.15,-0.23 0.07,-0.1 0.13,-0.2 0.2,-0.3 0.03,-0.05 0.07,-0.1 0.1,-0.15 0.08,-0.12 0.16,-0.25 0.24,-0.37 0.01,-0.02 0.02,-0.03 0.03,-0.05 0.4,-0.64 0.79,-1.31 1.15,-2.01l8.9 0 0 23.77 -15.25 -15.25c0.73,-0.73 1.58,-1.64 2.46,-2.7 0.02,-0.03 0.05,-0.06 0.07,-0.09 0.06,-0.07 0.12,-0.14 0.18,-0.21 0.05,-0.06 0.1,-0.13 0.15,-0.19 0.05,-0.06 0.1,-0.12 0.14,-0.18 0.09,-0.12 0.19,-0.24 0.28,-0.36 0,-0 0.01,-0.01 0.01,-0.01 0.05,-0.07 0.11,-0.14 0.16,-0.21 0.07,-0.09 0.13,-0.17 0.2,-0.26 0.04,-0.05 0.08,-0.11 0.12,-0.16 0.08,-0.1 0.15,-0.21 0.23,-0.31 0.04,-0.06 0.09,-0.13 0.13,-0.19 0.07,-0.09 0.13,-0.19 0.2,-0.28 0.05,-0.08 0.11,-0.16 0.16,-0.24zm10.77 27.42l0 4.4 -20.92 -20.92 2.2 -2.2 18.72 18.72zm-19.04 -48.38c4.39,0 7.97,3.57 7.97,7.97 0,2.3 -0.61,4.51 -1.51,6.53 -0.21,0.47 -0.44,0.93 -0.68,1.38 -0.03,0.05 -0.05,0.09 -0.08,0.14 -0.1,0.18 -0.2,0.35 -0.3,0.53 -0.03,0.04 -0.05,0.09 -0.07,0.13 -0.12,0.21 -0.24,0.41 -0.37,0.61 -0.03,0.04 -0.05,0.08 -0.08,0.13 -0.1,0.15 -0.19,0.3 -0.29,0.45 -0.05,0.08 -0.1,0.15 -0.15,0.23 -0.08,0.11 -0.15,0.23 -0.23,0.34 -0.05,0.08 -0.11,0.16 -0.16,0.24 -0.09,0.12 -0.18,0.25 -0.26,0.37 -0.1,0.13 -0.2,0.27 -0.29,0.4 -0.06,0.07 -0.11,0.15 -0.17,0.22 -0.08,0.1 -0.16,0.2 -0.23,0.3 -0.05,0.06 -0.09,0.11 -0.14,0.17 -0.08,0.11 -0.17,0.21 -0.25,0.31 -0.01,0.01 -0.01,0.02 -0.02,0.03 -0.2,0.25 -0.41,0.49 -0.61,0.72 -0.01,0.01 -0.02,0.03 -0.03,0.04 -0.1,0.11 -0.19,0.22 -0.29,0.33 -0.02,0.02 -0.03,0.04 -0.05,0.06 -0.41,0.46 -0.8,0.87 -1.16,1.24 -0,0 -0.01,0.01 -0.01,0.01 -0.18,0.18 -0.36,0.36 -0.52,0.52 -1.4,-1.36 -3.53,-3.67 -5.23,-6.53 -0.02,-0.04 -0.04,-0.07 -0.06,-0.11 -0.06,-0.1 -0.11,-0.2 -0.17,-0.3 -0.07,-0.12 -0.14,-0.25 -0.21,-0.37 -0.04,-0.07 -0.08,-0.15 -0.12,-0.22 -0.1,-0.19 -0.21,-0.39 -0.3,-0.59 -0.01,-0.01 -0.01,-0.03 -0.02,-0.04 -0.12,-0.24 -0.23,-0.48 -0.34,-0.72 -0.9,-2.02 -1.51,-4.23 -1.51,-6.53 0,-4.39 3.57,-7.97 7.97,-7.97zm-10.14 17.85c0.36,0.7 0.75,1.37 1.15,2.01 0.01,0.02 0.02,0.03 0.03,0.05 0.08,0.13 0.16,0.25 0.24,0.37 0.03,0.05 0.07,0.1 0.1,0.15 0.07,0.1 0.13,0.2 0.2,0.3 0.05,0.08 0.1,0.15 0.15,0.22 0.05,0.08 0.11,0.16 0.16,0.24 0.07,0.09 0.13,0.19 0.2,0.28 0.04,0.06 0.09,0.13 0.13,0.19 0.07,0.1 0.15,0.21 0.23,0.31 0.04,0.05 0.08,0.11 0.12,0.16 0.06,0.09 0.13,0.17 0.2,0.26 0.05,0.07 0.11,0.14 0.16,0.21 0,0 0.01,0.01 0.01,0.01 0.09,0.12 0.19,0.24 0.28,0.36 0.05,0.06 0.1,0.12 0.14,0.18 0.05,0.06 0.1,0.13 0.15,0.19 0.06,0.07 0.12,0.14 0.17,0.21 0.02,0.03 0.05,0.06 0.07,0.09 1.01,1.22 1.98,2.24 2.78,3.02l-18.1 18.1 -16.48 -16.48 10.45 -10.45 17.45 0zm-24.21 0l-7.07 7.07 -7.07 -7.07 14.14 0zm-17.52 47.45l0 -14.31c7.39,1.05 13.26,6.92 14.31,14.31l-14.31 0zm19.13 -0c-1.11,-10.03 -9.1,-18.02 -19.13,-19.13l0 -3.2c11.79,1.13 21.2,10.54 22.33,22.33l-3.2 0zm8 0c-1.16,-14.43 -12.7,-25.98 -27.13,-27.13l0 -16.94 44.07 44.07 -16.94 0zm43.78 0l-20.08 0 -17.14 -17.14 12.93 -12.93 24.3 24.3 0 5.76z"/>
    </g>
   </g>
  </g>
 </g>
</svg>
