<?xml version="1.0" encoding="UTF-8"?>
<!DOCTYPE svg PUBLIC "-//W3C//DTD SVG 1.1//EN" "http://www.w3.org/Graphics/SVG/1.1/DTD/svg11.dtd">
<!-- Creator: CorelDRAW (Versión OEM) -->
<svg xmlns="http://www.w3.org/2000/svg" xml:space="preserve" width="258.826mm" height="185.485mm" version="1.1" style="shape-rendering:geometricPrecision; text-rendering:geometricPrecision; image-rendering:optimizeQuality; fill-rule:evenodd; clip-rule:evenodd"
viewBox="0 0 11592.68 8307.76"
 xmlns:xlink="http://www.w3.org/1999/xlink"
 xmlns:xodm="http://www.corel.com/coreldraw/odm/2003">
 <defs>
  <style type="text/css">
   <![CDATA[
    .fil1 {fill:#0066B1}
    .fil7 {fill:#308284}
    .fil8 {fill:#418F8B}
    .fil4 {fill:#4F8138}
    .fil6 {fill:#539D8B}
    .fil0 {fill:#71A541}
    .fil9 {fill:#81BB76}
    .fil3 {fill:#96C947}
    .fil2 {fill:#A0CF67}
    .fil5 {fill:#C2DC72}
   ]]>
  </style>
 </defs>
 <g id="Capa_x0020_1">
  <metadata id="CorelCorpID_0Corel-Layer"/>
  <g id="_1823697908752">
   <path class="fil0" d="M5017.4 5286.69c-3.7,9.95 1.74,-0.43 -4.26,7.48 -9.84,12.97 -26.62,21.93 -39.53,32.41 -5.24,4.25 -7.06,5.84 -14.01,9.53l-37 23.38c-25.08,14.44 -50.19,37.01 -78.78,44.14 -27.29,6.81 -13.72,-6.85 -20.17,16.17 -51.73,1.2 -35.2,9.63 -54.84,14.71 -22.87,5.92 -34.56,-3.16 -61.88,7.87 -30.31,12.23 -91.44,6.66 -129.92,5.92l-116.3 -19.47c-15.3,-7.94 1.08,-4.93 -22.11,-11.64 -17.49,-5.06 -12.15,-3.29 -24.83,-9.24 -8.46,-3.97 -17.95,-5.2 -25.14,-9.26 -13.75,-7.77 -2.62,-7.08 -17.38,-12.14l-55.5 -28.36c-0.64,-0.45 -1.55,-1.1 -2.22,-1.53l-112.09 -77.7c-0.58,-0.54 -1.42,-1.29 -2.01,-1.82 -46.7,-42.81 -120.73,-121.09 -154.93,-170.89 -5.49,-7.99 -8.04,-12.37 -15.21,-19.28 -19.64,-18.92 -11.63,-18.56 -27.21,-40.75 -24.54,-34.95 -37.75,-75.83 -56.89,-114.15 -13.24,-26.51 -18,-51.23 -25.26,-76.95l-15.93 -75.41c-0.29,-0.86 -0.73,-1.84 -1.06,-2.66 -16.74,-41.56 -11.51,-74.02 -11.52,-127.85 -0.01,-97.92 0.88,-47.55 10.81,-121.84 2.44,-18.25 2.6,-46.7 6.27,-62.36 4.61,-19.69 11.31,-27.4 14.82,-53.41 3.74,-27.68 9.55,-21.21 13.47,-39.35 7.84,-36.28 -0.08,-15.82 19.73,-59.36 20.74,-2.62 57.76,-3.29 73.57,3.82 10.74,4.83 13.24,9.01 31.17,10.31 60.32,4.39 47.54,19.69 85.41,31.3l58.11 18.86c12.29,3.7 15.44,9.35 27.6,14.03 33.49,12.89 121,69.89 157.25,93.13 6.84,4.39 3.28,2.34 10.46,8.23l57 45.42c38.47,33.12 101.39,120.22 126.06,166.21l19.99 36.84c8.48,15.03 0.59,0.31 8.47,10.27l30.6 79.17c5.72,15.93 1.35,22.1 14.58,29.86 14.6,-34.03 33.62,-63.4 50.59,-95.75l50.13 -71.64c7.95,-7.85 19.98,-13.68 38.92,-33.13l166.62 -121.73c10.19,-7.76 4.4,-3.95 17.36,-8.23 16.91,-5.59 16.91,-11.18 33.28,-15.99l16.27 -7.42c14.92,-10.32 13.32,-6.96 36.39,-9.58 9.82,-10.18 5.79,-13.55 23.43,-15.37 14.77,-1.52 24.87,1 39.92,-3.34 19.06,-5.5 42.58,-15.96 67.74,-9.06 11,3.02 33.48,33.27 35.95,45.46 1.7,8.37 0.99,13.22 2.12,20.99 2.49,17.32 12.33,22.8 14.73,42.27 4.69,38.07 14.01,39.79 15.54,67.58 2.15,39.01 5.76,168.62 -1.59,202.83 -2.94,13.71 -7.52,15.54 -10.94,24.85 -4.17,11.35 -2.66,23.61 -6.64,35.33l-29.68 92.25c-3.77,11.9 -8.41,12.93 -13.2,28.45 -10.05,32.54 -34.12,64.94 -49.72,94.64 -5.67,10.79 -2.04,2.75 -7.75,11.21 -2.01,2.98 -0.36,-0.38 -4.38,7.28 -1.98,3.78 -1.01,3.21 -3.54,7.93l-41.29 56.74c-13.54,15.72 -57.07,75.36 -79.67,79.73zm-605.53 -2933.36c27.29,-21.64 12.69,-23.93 25.63,-51.41 16.72,-35.5 0.22,-18.18 18.82,-56.12 9.27,-18.92 3.61,-39.61 13.83,-62.41 9.54,-21.3 4.46,-43.71 12.13,-59.76 13.93,-6.62 166.62,-5.79 191.78,-2.72 3.26,17.23 3.47,36.79 7.77,52.83 5.26,19.62 7.35,22.88 11.02,47.36 2.83,18.83 9.54,28.81 12.98,43.37 5.83,24.72 -1.03,23.81 11.17,45.65 7.97,14.27 4.01,6.19 7.01,24.84 5.19,32.33 14.87,7.12 18.69,65.41 2.38,36.41 0.73,76.99 0.77,113.85l-0.43 921.5c-0.05,37.67 6.12,316.92 -4.84,339.45 -18.68,38.42 -9.58,41.02 -51.77,69.32 -38.15,25.59 -28.15,28.16 -78.9,28.64 -42.34,0.4 -78.5,6.78 -102.25,-9.19 -12.18,-8.19 -13.21,-4.86 -22.09,-9.37 -6.56,-3.32 -3.04,-1.65 -7.7,-6.11l-48.49 -80.84c-8.95,-17.68 -13.84,-8.65 -15.32,-39.88 -3.49,-73.93 0.04,-156.4 -0.12,-231.34l0.33 -1143.07zm1888.56 -322.04c5.54,19.78 3.18,8.67 24.21,21.41 8.4,5.09 3.31,2.84 12.91,9.57l52.03 35.56c0.61,0.48 1.44,1.24 2.03,1.73l3.83 3.51c0.57,0.46 1.38,1.24 1.96,1.68l238.83 159.27c6.57,4.78 19.1,14.03 24.33,17.31 15.72,9.84 40.32,21.22 47.93,39.5 -7.77,15.52 -4.46,-0.95 -10.59,16.5l-13.28 28.03c-8.03,13.15 1.57,5.66 -10.97,23.3 -21,29.54 4.73,10.21 -17.68,35.17 -15.54,17.31 0.64,7.91 -15.06,34.5 -4.79,8.11 -5.32,8.02 -8.47,17.92 -9.72,30.51 -8.45,13.28 -15.53,37.98 -4.18,14.57 1.93,4.26 -7.03,15.48 -8.26,10.35 -5.17,-0.87 -9.54,15.81 -1.05,4 -0.5,5.33 -1.85,9.89 -2.49,8.4 -1.49,4.87 -3.52,8.48 -10.92,19.45 -10.33,5.88 -11.2,37.55l-16.31 11.38c-1.45,41.58 -1.69,28.19 -10.45,41.64 -8.31,12.76 -2.52,16.35 -8.13,29.55 -2.58,6.07 -2.4,3.81 -4.86,7.16 -15.41,20.95 -2.58,16.8 -9.87,38.78 -6.3,18.98 -11.74,1.12 -13.58,30.64 -2.48,39.85 -3.49,16.56 -12.74,37.85 -7.31,16.82 1.81,20.08 -9.49,40.2 -12.66,22.53 -5.53,13.33 -9.31,39.66 -4.15,28.9 -7.45,1.48 -13.34,32.41 -7.09,37.27 -3.05,14.43 -14.51,34.49 -6.43,11.25 -2.71,27.81 -4.84,43.36 -3.88,28.36 -10.9,5.54 -13.07,37.44 -1.53,22.49 2.69,21.48 -7.82,38.06 -11.92,18.83 -5.96,16.76 -8.2,41.43 -1.88,20.72 -8.06,19.97 -12.85,36.48 -4.45,15.31 0.14,32.03 -4.36,45.13 -3.95,11.5 -10.72,11.63 -12.98,32.68 -2,18.67 2.9,28.74 -5.54,43.45 -10.07,17.55 -11.99,6.49 -12.34,35.78 -0.27,22.94 2.02,24.86 -6.97,43.21 -19.08,38.94 0.43,52.64 -13.83,81.38 -22.74,45.83 -0.21,40.37 -15.85,82.07 -19.38,51.69 -3.13,54.29 -12.79,82.22 -16.19,46.81 -16.61,70.97 -15.97,128.38 0.38,34.51 -10.84,52.57 -11.69,87.15 -0.84,33.91 -3.67,61.63 -5.31,91.16 -1.55,0.6 -7.85,-5 -14.85,13.81 -2.24,6.02 -2.58,17.48 -4.3,26.52 -1.37,-42.35 -7.29,-206.29 3.3,-232.76 14.07,-35.17 5.98,-180.9 6.07,-232.31l0.15 -955.63c0.21,-120.37 -5.35,-376.78 0.37,-478.88l12.89 -4.05zm-939.9 -614.67l14.33 4.24c-15.02,38.43 -21.45,44.24 -40.81,71.7 -21.36,30.32 -4.98,13.19 -35.42,48.09l-106.3 139.51c-97.93,6.97 -219.35,2.06 -319.39,1.14l-868.42 -4.14c-61.88,0.33 -29.58,-4.59 -64.44,-14.97 4.03,9.69 3.09,7.16 7.85,13.42 3.67,4.84 2.43,3.77 7.66,7.74 13.51,10.27 7.88,1.1 17.64,12.66 4.31,5.11 6.56,9.93 13.37,16.98l36.17 39.28c30.15,41.56 49.23,46.9 62.85,59.03l66.32 70.15c12.72,12.16 21.12,17.36 32.68,27.98l74.61 65.47c23.29,24.71 36.71,26.51 59.46,46.83 30.33,27.1 75.77,49.98 110.96,71.44 33.98,20.72 22.61,10.27 40.03,20.25 2.1,36.23 -2.62,38.61 -10.05,63.31l-20.59 93.76c-2.98,15.43 -7.74,15.75 -11.39,25.65 -4.73,12.86 -1.11,17.67 -7.99,30.5 -6.79,12.66 -10.49,8.55 -7.8,26.67l-37.12 79.63c-25.12,34.87 -3.81,15.57 -17.91,35.29l-27.61 38.91c-5.44,14.94 -2.34,8.41 -12.62,19.53 -14.01,15.18 -16.09,25.97 -28.42,39.9l-9.67 9.54c-3.83,3.53 -3.78,2.8 -7.52,7.17 -41,47.91 -33.58,31.35 -50.76,47.99 -5.14,4.98 -1.06,2.54 -9.07,9.81l-65.77 47.81c-73.74,39.67 -66.41,19.81 -120.77,-31.76 -22.56,-21.4 -40.63,-48.39 -61.71,-71.02 -6.06,-6.51 -9.53,-10.92 -16.25,-17.85 -7.23,-7.47 -10.01,-10.62 -15.95,-18.07 -11.63,-14.62 -49.57,-66.22 -60.43,-73.2 -18.22,-11.71 -4,4.76 -14.62,-17.76 -4.7,-9.97 -8.04,-12.48 -14.31,-20.66l-37.93 -48.92c-4.9,-7.37 -0.62,-0.1 -6.02,-8.92 -3,-4.9 -3.18,-6.1 -5.68,-9.71l-15.31 -22.31c-0.41,-0.78 -0.88,-1.79 -1.29,-2.58 -0.54,-1.03 -2.14,-3.99 -2.67,-5.01l-59.4 -100.06c-22.74,-33.63 -6.48,-13.73 -17.31,-32.01l-19.76 -37.54c-9.88,-12.81 -13.05,-50.37 -27.7,-70.95 -8.9,-12.49 -5.45,-4.67 -10.92,-22.3 -6,-19.29 -6.31,-11.14 -11.43,-22.92 -4.43,-10.18 -2.71,-17.88 -6.29,-27.89 -5.24,-14.68 -7.15,-8.39 -10.49,-19.49 -3.64,-12.11 0.32,-17.46 -5.07,-29.89 -7.31,-16.83 -8.16,-3.49 -11.3,-21.75 -1.87,-10.84 -1.19,-20.84 -3.45,-30.99 -8.14,-36.59 -5.41,11.49 -16.25,-82.22 -2.9,-25.09 -10,-30.68 -14.74,-49.43 -33.7,14.85 -17.65,6.26 -45.23,12.94 -27.03,6.54 1.48,6.91 -42.7,14.18 -19.94,3.28 -19.68,11.34 -42.41,14.48 -39.02,5.39 -20.94,9.35 -42.59,14.29 -8.46,1.93 -14.12,0.96 -23.51,3.04 -20.63,4.57 -8.62,3.88 -20.67,9.67 -3.81,1.83 -0,0.9 -8.32,3.05 -12.89,3.32 -21.42,0.68 -36.91,8.6 -14.22,7.27 6.92,2.37 -18.39,8.15 -5.41,1.24 -17.2,1.46 -25.82,4.51 -0.86,0.31 -6.44,3.3 -7.49,3.89l-4.61 2.97c-0.75,0.4 -1.66,0.99 -2.44,1.36 -10.67,5.03 -15.1,3.18 -28.62,5.52l-84.92 28.84c-47.59,9.92 -16.91,3.54 -43.4,13.48 -18.74,7.03 -22.48,0.54 -44.87,12.02 -13.42,6.88 -0.47,3.2 -20,6.54 -45.03,7.69 -19.64,8.09 -42.83,14.05l-43.39 13.49c-7.4,2.92 -18.36,4.24 -25.06,5.29 -27.94,4.36 -18.63,9.29 -38.89,15.81 13.74,25.34 6.25,179.15 6.25,223.74l0.25 1551.05c-0.38,32.26 1.45,40.24 -12.47,44.91 -7.76,-16.95 -6.33,-60.39 -7.87,-82.92 -2.01,-29.45 -13.22,-42.03 -14.63,-71.85 -0.72,-15.13 -0.43,-30.71 -1.42,-45.84 -2.18,-33.57 -18.39,-26.43 -13.38,-117.39 0.54,-9.83 0.87,1.34 -5.58,-6.65l-8.44 -23.49c-7.18,-78.73 -13.13,-44.92 -17.28,-79.81 -5.26,-44.2 -14.79,-68.42 -15.73,-87.25 -1.25,-25.01 -0.7,-21.7 -8.21,-40.56 -13.28,-33.38 0.99,-33.27 -18.25,-80.2 -5.76,-14.05 -5.33,-26.87 -8.91,-44.01 -6.74,-32.27 -24.5,-81.01 -29.36,-118.66 -2.45,-19 -6.98,-24.09 -11.33,-38.39l-46.01 -154.04c-7.96,-15.32 -3.33,-25.25 -9.07,-40.48 -7.82,-20.73 -7.44,-6.83 -12.14,-37.09 -3.53,-22.76 -9.11,-14.86 -13.87,-35.38 -4.55,-19.64 -15.56,-60.26 -25.36,-73.52 -12.93,-17.5 -5.3,-15.3 -12.12,-36.32l-22.8 -53.52c-4.42,-9.7 -2.8,-10.48 -5.67,-20.93 -6.35,-23.12 -27.84,-59.24 -30.84,-67.63 -10.8,-30.29 -32.14,-70.62 -47.85,-100.39 -11.42,-21.64 -32.21,-39.3 -33.67,-63.8l-20.85 14.48c-0.68,0.45 -1.68,0.98 -2.34,1.44l-47.23 32.38c-0.64,0.47 -1.52,1.16 -2.15,1.64l-26.27 19.23c-8.47,6.5 -1.73,2.21 -11.29,7.67l-110.5 75.32c-4.48,3.07 -7.23,4.41 -11.53,7.43l-47.38 32.26c-0.68,0.44 -1.59,1.08 -2.24,1.55l-161.51 111.53c-0.63,0.47 -1.45,1.23 -2.09,1.7 -0.64,0.47 -1.51,1.17 -2.17,1.63l-131.57 88.38c-0.68,0.44 -1.59,1.08 -2.25,1.55 -6.68,4.74 -0.38,0.67 -6.19,5.19 -6.06,4.72 -5.1,3.65 -11.35,7.61l-11.23 7.73c-4.7,3.35 -6.62,4.38 -11.22,7.74 -5.88,4.28 -5.38,4.69 -10.57,8.4 -8.08,5.77 -4.62,2.55 -11.86,7.1l-143.94 98.75c-0.91,0.65 -3.42,2.61 -4.34,3.25l-30.02 19.28c-5.57,3.93 -5.69,3.82 -10.95,8.02 -0.86,0.69 -3.18,2.84 -4.07,3.51l-25.34 16.38c-30.72,26.05 -118.93,69.98 -131.53,103.58l-10.49 23.64c-6.84,22.79 0.99,49.43 7.52,68.82 0.31,0.93 0.64,1.91 0.93,2.86 0.3,0.98 0.53,1.99 0.81,2.99l46.22 78.92c3.31,4.96 1.84,3.48 4.2,7.18l97.65 145.06c3.4,5.06 4.77,5.69 8.38,10.58 5.19,7.04 9.95,15.14 15.17,22.75l146.77 217.28c0.45,0.69 0.97,1.68 1.42,2.36l64.38 94.89c0.49,0.62 1.24,1.45 1.73,2.06l57.98 86.12c0.47,0.65 1.06,1.61 1.53,2.26l20.91 32.19c3.12,4.79 4.5,6.03 7.87,11.09 2.55,3.85 2.71,4.68 6.01,9.16l154.37 228.64c2.97,5.19 0.76,1.71 4.61,6.77l16.3 21.62c6.57,9.37 7.84,14.74 14.25,23.67l35.64 51.58c26.78,31.43 46.04,70.98 69.93,104.51l4.87 6.51c0.5,0.61 1.26,1.43 1.76,2.03l10.56 12.2c12.76,13.61 34.51,19.19 48.91,26.93 25.5,13.69 71.29,8.13 93.34,-3.3 20.56,-10.65 37.73,-25.66 56.44,-38.37l164.37 -116.25c0.86,-0.7 3.12,-2.91 3.97,-3.62 2.56,-2.15 3.82,-3.05 6.36,-5.02l209.61 -146.86c0.85,-0.7 3.09,-2.93 3.95,-3.63 8.11,-6.73 32.39,-28.24 39.3,-21.38 9.5,9.43 3.79,933.09 3.79,1023.89 0,95.46 -4.33,1576.63 0.3,1607.58 2.04,13.66 4.91,11.31 8.86,21.48 12.66,32.61 8.22,35.51 35.84,62.76 26.58,26.23 23.03,16.98 46.98,32.65 24.06,15.73 73.34,8.55 105.21,8.55l1160.41 0c345.62,0 679.86,3.79 1023.89,3.79l383.01 3.79c46.65,-0 78.89,3.79 125.14,3.79 128.79,-0.01 258.26,3.2 387.02,0.22 20.43,-0.47 32.93,-6.26 51.22,-13.24 22.14,-8.46 37.59,-24.08 53.39,-41.41 10.93,-11.99 6.75,-11.46 15.17,-22.75l18.7 -38.18c11.04,-21.3 9.39,-25.54 9.22,-55.25l-0.03 -1353.83c0,-169.75 -4.94,-346.93 0.3,-515.74l1.06 -2.72c-6.45,-5.34 -4.24,-0.72 -8.5,-10.08 -5.69,-12.51 -2.22,-578.05 -2.22,-635.67 0,-18.74 -7.6,-85.81 9.69,-87.29 18.51,-1.59 -1.77,-8.25 18.95,2.84 0.12,0.06 95.13,70.71 132.79,92.61l20.71 16.11c3.09,2.53 3.47,2.61 6.5,5.08 9.18,7.52 17.32,14.05 27.87,21.47 7.28,5.11 9.19,5.59 15.74,10.74l53.17 38.19c31.12,19 56.28,43.2 92.15,66.64 7.78,5.08 7.37,5.61 13.37,9.63l48.35 31.89c0.8,0.46 1.76,0.99 2.57,1.43l53.9 37.28c15.25,7.49 7.93,5.73 15.9,9.63l24.59 4c6.88,0.09 16.45,0.12 23.24,-0.2 16.96,-0.77 44.09,-13.54 55.72,-21.97 22.22,-16.1 27.24,-37.83 42.57,-56.09 0.52,-0.61 1.29,-1.45 1.81,-2.08l14.57 -19.76c4.9,-6.93 0,0.42 4.46,-7.16l15.24 -22.14c2.34,-3.52 2.29,-4.06 4.35,-7.23l102.02 -148.76c0.47,-0.79 1.01,-1.77 1.46,-2.57l4.99 -10.08c5.7,-9.18 4.37,-3.97 11.6,-14.26l15.74 -21.95c2.4,-3.24 2.53,-3.81 4.68,-6.87 4.74,-6.73 5.9,-7.4 9.58,-13.15 10.74,-16.8 4.16,-16.18 23.6,-25.85 8.68,-15.09 29.26,-47 40.27,-62.01l43.71 -58.16c24.8,-0.79 37.84,-0.75 52.76,-10.89l-40.8 5.09c-3.87,-25.02 -7.87,-14.63 6.15,-33.29l161.85 -245.07c4.17,-6.82 0.83,-1.11 8.19,-9.56l36.03 -51.68c2.95,-4.56 5.16,-9.31 8.45,-14.13 0.56,-0.82 4.7,-6.25 4.93,-6.59l3.09 -4.8c7.76,-12.12 0.14,-2.31 9.2,-12.84l37.81 -58.26c8.57,-16.56 -1.19,-4.74 13.58,-18.87 14.98,-14.33 15.28,-19.88 26.55,-34.71l104.77 -152.02c16.23,-32.16 44.09,-56.3 46.4,-79.05 7.11,-69.88 -36.5,-98.27 -45.08,-129.04 -6.64,-9.98 -13.32,-8.3 -24.99,-16.98l-51.06 -36.05c-10.09,-7.94 -16.39,-11.56 -21.98,-22.85 -30.05,-6.15 -39.69,-20.8 -61.52,-37.65 -11.47,-8.86 -6.62,-4.7 -18.52,-11.42 -6.7,-3.78 -1.52,-0.41 -7.19,-4.67l-34.32 -22.23c-19.04,-8.4 -23.03,-13.51 -38.47,-26.37l-28.67 -20.45c-33.92,-24.83 -3.7,-5.9 -33.78,-19.31l-191.19 -135.23c-0.59,-0.55 -1.27,-1.44 -1.84,-1.99 -29.7,-28.53 -36.28,-19.11 -60.3,-37.99l-5.87 -5.89c-12.81,-13.07 -7.44,-5.06 -21.11,-12.25 -3.67,-1.93 -2.71,-1.65 -4.9,-3.12l-91.19 -57c-23.18,-15.11 -19.91,-9.38 -32.69,-23.78 -0.52,-0.58 -1.2,-1.49 -1.73,-2.06l-142.09 -97.06c-0.65,-0.52 -1.54,-1.2 -2.17,-1.74l-4.05 -3.71c-0.57,-0.53 -1.31,-1.39 -1.87,-1.92l-150.09 -99.82c-5.56,-4.38 -3.84,-2.83 -8.88,-6.16l-238.55 -159.86c-8.66,-5.73 -3.05,-2.37 -8.64,-6.51 -14.41,-10.67 -72.23,-49.43 -83.51,-48.95l-16.57 -13.85c-9.26,-11.48 5.34,-7.55 -13.97,-16.71 -10.06,-4.77 -10.26,-0.99 -22.84,-7.41 -36.11,-18.44 -92.27,-23.94 -111.92,-32.35 -13.49,-5.78 -0.17,-4.87 -20,-9.77 -9.84,-2.43 -17.04,-1.25 -26.67,-4.32l-50.01 -21.39c-19.11,-10.31 -18.8,-2.95 -37.87,-7.87l-63.83 -23.3c-15.69,-8.68 -31.84,-7.32 -68.01,-19.11 -15.46,-5.04 -50.19,-9.05 -80.43,-25.83 -28.77,-15.96 -31.71,-5.06 -56.87,-15.09l-91.05 -26.57c-21.38,-4.15 -22.75,-14.16 -44.15,-9.08 -18.25,21.61 -15.73,86.06 -28.49,112.78 -10.32,21.58 -7.27,61.72 -27.1,91.59 -20.72,31.2 -6.84,28.5 -19.2,48.2 -11.15,17.77 -7.39,4.15 -9.62,34.51 -6.77,5.78 0.16,3.57 -13.52,7.58 -0.41,7.74 0.02,11.37 -2.38,18.78l-67.35 142.16c-5.07,8.38 -5.43,12.19 -10.26,20.26 -6.27,10.48 -9.11,8.46 -14.33,19.16l-9.93 21.01c-8.36,12.57 -15.78,28.63 -24.22,40.45 -8.65,12.12 -4.88,5.41 -12.94,21.28l-50.36 59.45c-15.3,12.98 -20.81,31.68 -33.87,45.89 -42.57,46.29 -51.62,71.19 -92.28,108.66l-4.04 3.59c-5.51,5.31 -41.54,55.47 -65.71,78.29l-28.51 31.74c-44.7,2.38 -25.9,-4.64 -53.93,-11.23 -9.16,-2.15 -16.53,-1.23 -25.4,-4.94 -32.84,-13.73 -70.57,-37.07 -95.58,-59.95l-68.08 -72.1c-0.22,-0.34 -4,-7.78 -5.2,-9.97 -4.99,-9.07 -6.32,-10.36 -11.65,-18.93l-23.01 -33.78c-0.44,-0.71 -1.07,-1.62 -1.52,-2.33 -1.88,-2.95 -5.8,-9.33 -7.29,-11.44 -0.37,-0.52 -1,-1.51 -1.37,-1.99 -6.83,-8.78 -10.24,-4.57 -15.6,-17.82 -20.45,-50.52 -14.05,-18.92 -26.51,-96.51l-30.74 -95.27c-4.21,-21.55 3.05,-37.61 -7.27,-52.82 -17,-25.06 -6.06,-15.82 -13.81,-47.05 -6.26,-25.22 -11.6,-16.47 -8.38,-52.4l46.19 -22.05 203.05 -149.37c11.22,-10.03 24.91,-16.42 36.27,-28.4l65.64 -63.05c9.43,-8.42 15.79,-13.45 24.38,-21.29 50.86,-46.37 115.22,-115.72 160.03,-169.66l29.31 -36.16c21.34,-19.97 3.93,-1.6 17.58,-26.64l60.85 -79.2c0.5,-0.67 1.12,-1.63 1.63,-2.3l29.01 -42.12c7.63,-20.29 28.57,-36.98 30.8,-59.48l-30.16 -7.49 -0.82 8.35z"/>
   <path class="fil1" d="M6124.37 213.2l11.39 0.08c47.63,-0.95 57.93,-9.3 90.95,-10.86l299.62 -4.71c56.85,0.16 146.35,-4.25 199.6,2.46 28.94,3.65 47.8,12.67 84.75,13.62 17.16,0.44 61.12,-3.39 76.3,9.67l2.32 2.77c0.17,0.19 0.67,1.07 1.07,1.56 27.37,2.41 58.49,-2.65 80.93,9.99 15.93,8.96 46.09,4.85 60.73,14.87 8.3,5.67 -5.88,1.31 12.22,7.17 10.62,3.44 20.28,1.13 32.09,6.17 13.37,5.7 6.05,7.08 26.54,11.18l56.86 19.3c11.6,5.28 5.82,6.59 23.16,13.22 16,6.11 13.67,7.24 26.47,12.71 15.94,6.81 13.76,7.78 24.67,13.1 25.17,12.26 13.58,0.95 36.53,19.7l16.1 11.22c4.62,2.81 2.97,1.67 7.69,4.11 19.06,9.88 33.93,26.35 49.6,40.56l46.11 48.9c21.12,21.72 23.45,29.6 37.77,56.39 6.45,12.06 22.6,34.5 15.57,51.86 -15.31,37.86 -141.54,15.99 -158.42,7.49 -17.11,-8.61 -6.67,-4.43 -29.1,-9.41 -27.68,-6.15 -13.88,-16.46 -63.67,-13.98 0.87,0.83 2.35,0.6 2.89,2.17 0.53,1.52 2.12,1.59 2.84,2.06 3.82,2.45 4.86,2.88 8.11,4.86l34.34 25.27c14.62,9.08 13.32,3.17 27.31,13.96 25.51,19.65 52.07,17.88 75.77,45.86 68.77,81.2 -101.36,65.54 -148.27,61.07 -31.47,-3 -44.2,-10.86 -69.71,-13.4 -39.63,-3.94 -34.95,-2.24 -70.41,-13.05 -23.79,-7.25 -47.46,-0.29 -68.83,-11.14 -28.89,-14.68 -131.35,-13.79 -154.16,-0.73 -25.77,14.76 -29.41,3.29 -55.45,28.91 -4.99,4.91 -4.99,4.94 -9.46,9.11 -0.58,0.54 -1.44,1.27 -2.02,1.81 -0.58,0.55 -1.42,1.31 -2,1.87 -48.37,46.33 -45.61,47.66 -74.79,103.68 -8.04,15.43 -1.76,17.79 -10.68,30.88 -8.7,12.76 -1.2,-7.7 -7.74,11.77 -8.41,25.03 10.49,32.94 -15.96,46.72 -4.04,58.26 -6.37,41 -15.63,79.25 -11.89,49.09 1.98,116.96 41.62,145.34 13.36,9.57 43.7,26.18 64.53,29.69 14.66,2.47 25.21,3.52 39.81,5.39 21.32,2.73 18.82,7.17 41.29,9.32 29.62,2.84 64.84,1.01 95.07,1.12 22.89,0.09 73.1,-4.23 88.46,4.7l14.18 8.87c9.78,3.3 14.57,1.15 23.35,4.02 21.76,7.11 -1.46,12.65 29.86,17.48 3.57,33.71 31.45,63.94 55.98,84.4 20.24,16.88 56.68,7.67 77.84,4.9 3.96,-48.66 7.06,-56.51 -13.1,-88.4l-9.89 -13.04c-10.34,-13.61 -8.02,-29.83 4.83,-41.96 22.18,-20.95 57.41,-2.42 77.17,-21.5 19.14,-18.48 22.22,-33.47 12.75,-53.7 -5.38,-11.49 -5.35,-19.23 -12.6,-30.26l-44.84 -56.64c-0.54,-0.54 -1.42,-1.27 -1.97,-1.81l-9.34 -9.84c-4.45,-4.59 -5.01,-4.59 -9.61,-8.99l-3.94 -3.91c-0.57,-0.56 -1.31,-1.42 -1.87,-1.99 -1.99,-1.99 -1.93,-2.27 -5.55,-5.5l-15.79 -15.32c-9.42,-13.15 -18.23,-19.04 -19.51,-33.16 -8.18,-3.81 0.09,0.5 -6.62,-4.79 -0.73,-0.58 -5.26,-4.32 -6.09,-5.05 -7.82,-6.92 -9.41,-9.67 -12.84,-13.99 -63,-79.38 -0.29,-117.62 86.64,-76.24 7.21,3.44 2.54,0.98 7.79,3.83l104.21 71.17c0.6,0.54 1.47,1.28 2.08,1.81l51.32 50.89c1.33,1.06 6.2,4.99 6.32,5.08 0.89,0.7 3.43,2.79 4.35,3.47l110.89 82.92c23.59,12.69 7.39,16.2 38.43,15.5 0.3,-11.56 1.38,-22.08 -2.98,-32.15 -1.94,-4.48 -3.61,-5.66 -4.52,-7.01l-30.12 -61.99c-7.75,-11.57 -2.56,2.8 -7.67,-12.94 -12.89,-39.64 -14.27,-25.01 -18.36,-49.85 -2.33,-14.14 -28.64,-63.95 -11.77,-93.28l19.32 -25.91c0.48,-0.54 11.17,-10.77 11.44,-10.96l30.28 -14.66c23.3,-6.76 66.22,8.86 82.65,26.38l34.21 34.61c37.53,32.95 23.31,35.31 45.39,46.37l1.05 15.15c9.14,14.79 33.28,39.5 48.14,48.24 16.11,9.48 53.5,28.69 71.38,31.2 25.31,3.55 70.53,0.8 90.2,8.38 33.55,12.93 25.4,2.62 44.3,16.5 19.99,14.68 27.35,14.75 51.58,39.37l43.26 51.59c0.47,0.6 1.26,1.41 1.72,2.01 14.53,19.07 26.33,59.74 33.09,69.26l13.17 17.34c0.75,0.82 3.09,2.85 3.85,3.64l32.25 31.99c13.11,7.59 24.77,11.22 42.75,11.91 60.09,2.32 30.24,2.34 77.45,20.06l33.96 15.33c7.52,4.06 22.8,16.09 30.89,21.96 19.14,13.89 46.58,33.31 21.06,58.84 -11.77,11.77 -71.55,56.83 -91.28,59.38 -66.08,8.56 -83.63,-3.21 -121.47,-28.82 -14.66,-9.92 -16.46,-9.38 -28.56,-20.96 -7.55,-7.22 -16.63,-21.29 -21.09,-31.33 -7.12,-16.03 -27.12,-52.48 -44.95,-58.58 -24.31,-8.31 -64.38,14.2 -83.55,26.62 -3.85,2.49 -7.17,3.74 -12.12,6.66 -30.91,18.24 -44.67,32.89 -71.2,54.63 -13.75,31.24 -8.84,14.18 -22.62,33.72l-63.69 103.91c-9.74,24.87 -18.71,25.02 -16.71,60.04 11.38,-6.88 3.22,-2.51 21.27,-29.06 4.58,-6.74 5.19,-10.45 9.57,-17.19 47.17,-72.63 83.71,-60.12 150.65,-10.7 10.77,7.95 18.64,13.83 30.52,23.09 32.75,25.53 50.88,7.23 65.93,-26.73 5.56,-12.55 15.2,-25.38 22.76,-37.95 15.52,-1.54 14.68,-3.75 26.39,2.58 16.14,8.72 26.82,25.29 39.01,37.78l10.71 8.26c0.61,8.29 0.89,18.84 2.02,26.84 5.25,37.19 21.1,4.81 -2.08,92.3 -2.93,11.06 -6.64,12.59 -9.99,20.02 -11,24.33 4.68,8.16 -17.38,27.04 -10.19,8.72 -21.16,28.45 -35.18,36.58 -11.4,6.61 -39.51,6.42 -53.6,2.47 -17.69,-4.96 -24.77,-38.34 -34.12,-51.73 -7.51,-10.75 -8.2,-6.05 -13.56,-20.78 -16.25,-17.88 -76.46,34.47 -89.91,46.51l-47.02 40.11c-26.33,28.52 -2.19,8.21 -33.16,31.31 -11.91,8.89 -6.63,7.94 -17.49,16.46 -7.27,5.71 -1.78,-0.35 -8.66,6.72 -0.76,0.78 -7.67,11.2 -7.85,11.56 -8.32,16.45 -8.21,26.04 -0.77,40.38 14.58,28.13 24.26,26.91 47.98,39.88 19.6,10.71 46.6,19.54 59.5,38.81 23.73,35.46 -28.93,57.83 -79.81,112.18 -5.16,5.51 -9.62,9.46 -14.44,16.11 -22.74,31.28 -33.04,67.52 -44.53,92.11 -14.99,32.05 -12.78,47.84 -11.47,92.03 1.92,64.77 57.96,115.1 63.37,137.61 2.71,11.28 3.39,54.77 0.29,65.62l-54.54 77.57c-22.03,29.72 -63.39,84.48 -89.73,111.22 -7.05,7.16 -10.19,11.77 -16.05,18.16 -5.31,5.78 -3.32,3.1 -7.62,7.39 -0.56,0.56 -1.38,1.34 -1.93,1.9l-7.26 8.02c-18.98,20.46 -46.85,50.9 -60.32,76.09 -17.16,32.07 -28.53,67.93 -18.66,107.52l46.33 86.63c5.59,11.29 11.89,14.91 21.98,22.85l51.06 36.05c11.68,8.69 18.35,7 24.99,16.98 15.54,1.85 15.48,7.76 23.51,18.33 16.87,22.21 5.37,9.53 15.48,29.2 8.7,16.92 16.62,22.25 16.47,66.04 -0.02,5.25 -3.23,32.03 -4.57,36.96 -3.68,13.6 -6.26,7.56 -17.01,23.32l-69.86 100.83c-11.28,16.36 -21.93,34.72 -33.65,49.7 -4.35,5.55 -13.75,18.12 -17.28,24.38 -3.04,5.39 -3.51,8.24 -6.2,13.06l-6.25 9.22c-0.48,0.71 -1.13,1.61 -1.6,2.33l-42.22 56.11c-14.59,16.01 -9.91,18.72 -37.53,53.3l-8.87 16.71c-4.33,7.73 -10.88,17.37 -16.87,25.29 -7.22,9.54 -10.4,16.29 -16.65,25.39l-101.85 152.88c-4.35,7.3 -2.66,5.21 -7.22,11.54l-20.59 32.27c-0.51,0.67 -1.21,1.57 -1.7,2.26l-20.88 28.97c-6.69,11.7 -0.11,2.11 -7.14,10.93l-3.47 3.97c-14.39,18.19 -18.72,21.58 -21.53,41.93 20.36,0.74 44.87,1.84 62.14,-4.96 25.8,-10.14 19.06,-7.75 53.51,-11.07 29.5,-2.84 20.81,-11.91 48.89,-14.71 10.59,-1.05 21.86,-0.95 32.22,-4.11 19.31,-5.9 33.63,-20.22 85.74,-12.19 64.95,10.01 31.48,112.82 30.56,152.37 -0.33,14.33 2.6,45.87 7.68,56.76 0.77,1.64 8.73,14.04 11.58,18.28 23.02,34.39 74.33,47.09 111.24,53.21 46.12,7.65 143.14,-5.38 172.05,-19.52 29.33,-14.34 52.56,-19.67 87.82,-43.97 13.04,-8.99 25.38,-18.09 37.26,-26.6 45.28,-32.49 88.27,-83.49 129.77,-125.12l11.4 -11.35c7.39,-7.19 3.3,-2.15 7.1,-7.49l14.26 -20.14c38.84,-47.14 49.85,-78.19 100.82,-126.88 69.62,-66.49 138.31,-35.16 260.59,-41.39 21.9,-1.12 23.04,0.5 40.92,-7.09 15.97,-6.78 -8.03,-1.39 16.24,-5.83 21.18,-6.79 49.5,-36.55 64.35,-52.75 9.37,-10.23 5.59,-6.04 17.19,-13.45 84.07,-53.69 161.67,57.01 245.19,-24.02 5.75,-5.58 8.88,-12.41 14.32,-16 6.67,-18.76 2.66,-12.21 18.36,-27.05 19.78,-18.7 28.78,-21.81 50.01,-32.8 15.52,-8.04 15.39,-7.52 37.51,-7.89 55.87,-0.93 30.4,1.14 73.61,14.63l51.51 30.74c0.71,0.44 1.68,1 2.39,1.45l17.79 12.55c22.58,16.67 25.52,22.88 44.46,41.14 11.05,-4.78 6.05,0.44 11.91,-13.14 0.73,-1.68 2.67,-8.28 4.04,-11.22 3.8,-8.18 0.61,-1.07 5.71,-9.47l26 -57.44c3.31,-7.75 6.81,-11.05 10.29,-20.04l17.08 -39.8c2.84,-8.7 2.15,-11.47 6.62,-19.93 13.78,-26.16 23.85,-65.81 31.59,-82.17 3.96,-8.36 6.35,-8.44 9.56,-20.78l4.6 -21.94c0.33,-0.84 0.84,-1.78 1.22,-2.58 5.81,-12.3 4.84,0.21 9.57,-20.77 5.32,-23.63 13.36,-40.37 17.75,-65.67 2.59,-14.9 3.54,-10.18 9.07,-21.27 8.29,-16.63 3.46,-28.02 10.88,-46 8.17,-19.77 7.65,-25.37 10.83,-46.05 2.84,-18.44 12.04,-22.45 14.11,-42.77 5.08,-49.93 14.23,-50.75 18.45,-95.31 1.07,-11.26 -0.52,-17.45 2.68,-27.65l8.42 -21.92c3.62,-18.59 4.27,-31.98 4.64,-52.24 0.45,-24.5 7.5,-28.89 10.48,-46.41 5.77,-33.98 2.25,-76.2 7.4,-106.36 5.52,-32.32 10.69,-66.44 12.56,-101.2 4.13,-76.51 2.09,-282.63 -10.49,-338.42 -6.6,-29.28 -5.1,-73.95 -8.39,-105.38 -2.58,-24.74 -9.84,-26.7 -11.43,-45.45 -1.97,-23.12 -0.89,-34.63 -4.32,-56.36 -3.39,-21.44 -9.05,-19.11 -11.09,-45.79 -3.04,-39.58 -11.14,-39.69 -15.38,-68.04 -7.26,-48.54 -14.1,-52.95 -17.12,-70.1 -3.2,-18.19 -3.91,-28.33 -11.71,-45.17 -9.51,-20.55 0.43,-24.95 -11.7,-45.18 -13.42,-22.39 -4.22,-22.79 -12.5,-44.39 -3.81,-9.94 -7.3,-11.82 -9.79,-20.54 -3.24,-11.33 -0.85,-14.15 -5.65,-24.69 -5.18,-11.36 -5.34,-4.87 -9.63,-16.91l-21.07 -66.15c-4.51,-11.25 -4.92,-6.03 -9.75,-16.8 -4.25,-9.47 -3.02,-15.34 -6.64,-23.7 -4.22,-9.75 -5.26,-4.6 -10.19,-16.35 -4.51,-10.75 -1.62,-12.53 -6.78,-23.56l-27.27 -56.16c-10.06,-28.41 -29.13,-60.85 -43.43,-85.5 -14.39,-24.78 -23.77,-53.42 -40.36,-77.2l-11.22 -19.13c-18.72,-40.29 -53.09,-85.93 -77.79,-123.2 -0.45,-0.68 -0.99,-1.67 -1.43,-2.36l-87.08 -121.48c-5.11,-6.52 -7.17,-10.57 -12.41,-17.93l-22.21 -27.09c-0.5,-0.62 -1.14,-1.54 -1.63,-2.17l-13.51 -16.82c-0.5,-0.61 -1.19,-1.5 -1.68,-2.11 -0.69,-0.86 -2.56,-3.47 -3.25,-4.33l-8.73 -10.23c-0.5,-0.6 -1.24,-1.45 -1.73,-2.06l-179.37 -192.26c-7.44,-7.44 -7.76,-8.23 -14.63,-15.7l-24.07 -21.44c-0.59,-0.52 -1.42,-1.26 -2,-1.79l-107.95 -93.04c-44.36,-39.37 -93.87,-73.98 -142.09,-108.18 -6.94,-4.92 -3.38,-2.53 -8.65,-6.52 -0.63,-0.47 -1.46,-1.23 -2.1,-1.69 -0.64,-0.47 -1.51,-1.17 -2.17,-1.62 -0.67,-0.45 -1.59,-1.08 -2.28,-1.51l-34.66 -22.22c-6.62,-4 -4.01,-2.66 -9.15,-6.02 -6.92,-4.53 -12.21,-6.81 -18.95,-11.38l-72.22 -45.34c-8.2,-4.64 -7.73,-5.77 -16.31,-10.23l-36.86 -20.03c-6.77,-3.25 -3.98,-2.03 -9.34,-5.83 -7.49,-5.29 1.85,-0.88 -9.01,-6.16l-92.68 -47.63c-3,-1.42 -8.65,-3.18 -10.98,-4.19 -22.3,-9.69 -43.32,-23.28 -67.33,-31.27 -22.93,-7.64 -39.37,-23.53 -62.17,-28.84 -15.03,-3.51 -7.02,0.85 -20.26,-6.28 -12.21,-6.58 -5.46,-4.92 -20.87,-9.46 -17.58,-5.19 -21.47,-12.68 -40.86,-16.03 -10.14,-1.75 -11.63,-1.92 -19.82,-6.72 -17.15,-10.05 2.97,-3.7 -21.83,-8.51l-65.53 -21.69c-9.93,-4.71 -6.98,-5.62 -21.29,-9.04 -4.9,-1.17 -15.95,-2.12 -22.51,-4.04 -8.61,-2.52 -10.66,-6.04 -20.49,-9.84 -17.86,-6.9 -25.19,-0.78 -45.51,-11.38 -19.86,-10.36 -30.04,-4.65 -48.4,-12.28l-45.57 -11.31c-15.49,-1.56 -27.85,-11.22 -43.1,-13.79 -19.7,-3.32 -32.96,-0.91 -50.07,-6.81 -28.45,-9.81 -39.8,-9.98 -70.24,-13.19 -21.95,-2.32 -37.97,-12.19 -72.43,-14.79 -25.39,-1.91 -28.97,2.48 -51.5,-5.38 -40.14,-13.99 -219.63,-17.4 -270.64,-17.59 -41.59,-0.15 -67.8,7.84 -106.08,7.69 -36.46,-0.15 -83.9,-0.5 -111.04,6.52 -64.54,16.69 -68.6,1.03 -119.7,20.62 -20.67,7.92 -54.06,3.26 -76.07,11.15 -30.7,11 -48.74,6.83 -70.25,13.18 -15.03,4.44 -6.87,4.59 -21.12,9.22 -17.41,5.65 -29.87,1.01 -47.58,9.3 -24.13,11.28 -44.94,7.72 -67.75,19.47 -14.4,7.42 -6.58,3.61 -24.47,5.87 -18.48,2.33 -23.77,10.91 -42.16,14.72l-43.1 13.79c-8.21,2.42 -17.66,2.61 -25.53,4.81l-82.96 30.8c-19.04,4.64 -21.85,11.35 -41.5,15.39 -15.5,3.19 -9.5,2.9 -21.05,9.28 -20.59,11.37 -28.37,1.41 -40.1,21.4z"/>
   <path class="fil2" d="M6135.76 213.28l-11.39 -0.08c-38.44,-3.23 -28.23,5.86 -46.52,13.33 -9.97,4.07 -12.67,2.67 -22.16,8.18 -26.26,15.25 -45.79,17.74 -73.29,36.69 -6.17,4.25 -2.16,2.2 -10.17,5 -8.19,2.86 -2.14,-1.19 -11.62,3.55 -15.92,7.96 1.13,1.03 -10.77,8.19 -0.71,0.43 -1.63,1.02 -2.39,1.4l-32.81 16.49c-39.87,19.35 -55.43,32.17 -79.98,45.16 -3.79,2.01 -3.76,1.37 -8.09,3.29l-69.13 44.63c-0.7,0.44 -1.67,0.99 -2.41,1.39l-48.69 30.95c-0.99,0.57 -4.1,1.93 -5.11,2.47l-11.4 7.56c-0.61,0.5 -1.38,1.32 -1.98,1.81l-149.91 111.75c-0.6,0.51 -1.43,1.25 -2.03,1.76l-23.45 18.39c-4.3,2.7 -13.01,3.9 -14.27,16.4 -1.8,15.45 0.86,11.16 -17.3,28.01 -14.82,13.75 -9.81,13.65 -27.35,29.27 -0.57,0.51 -1.39,1.29 -1.98,1.79 -0.58,0.5 -1.4,1.26 -1.99,1.74 -61.19,50.42 -46.57,53.12 -72.43,75.43l-40.2 39.59c-0.6,0.6 -1.42,1.35 -2.01,1.97 -0.59,0.62 -1.36,1.43 -1.92,2.07l-20.41 20.33c-19.24,14.91 -10.15,14.02 -26.71,30.42 -35.83,35.49 -15.09,24.77 -31.19,40.61 -0.55,0.54 -1.49,1.2 -2.05,1.75 -18.31,17.93 -11.89,19.65 -27.81,33.16l-4.27 3.36c-1.84,1.53 -11.99,10.63 -12.1,10.76 -7.7,8.34 -2.13,-0.94 -8.14,12.49 -9.46,21.15 -1.43,18.48 -14.43,10.34 -1.07,28.42 -3.34,17.23 -25.32,43.23 -0.57,0.68 -1.33,1.49 -1.87,2.2l-11.19 19.03c-9.64,14.63 -7.73,6.81 -8.88,31.58 20.27,0 56.62,3.38 74.09,-3.97 25.8,-10.87 27.27,-21.48 46.99,-24.3l37.32 -28.49c18.72,-17.79 0.98,-11.61 36.44,-31.72l21.14 -13.15c8.58,-5.56 14.79,-5.66 23.26,-11.17 17.87,-11.62 -3.54,-5.64 22.05,-11.15 16.07,-3.47 15.03,-3.85 26.95,-7.92 32.62,-11.12 125.57,-12.19 108.47,85.77 -1.33,7.6 -3.87,20.56 -6.55,27.35 -11.9,30.1 -34.64,67.1 -54.43,93.88l-58.44 96.32c-4.32,7.79 -7.97,13.87 -12.28,21.72 -25.96,47.21 -56.35,131.4 -42.3,184.38l30.16 7.49c21.12,6.82 3.67,0.17 11.6,6.73l5.8 6.1c0.53,0.59 1.23,1.43 1.74,2.02l5.07 6.15c2.35,3.05 2.57,3.86 4.77,6.65l126.5 214.12 49.25 141.1c21.4,-5.08 22.78,4.93 44.15,9.08l91.05 26.57c25.17,10.03 28.11,-0.86 56.87,15.09 30.24,16.78 64.97,20.79 80.43,25.83 36.18,11.79 52.32,10.43 68.01,19.11l63.83 23.3c19.07,4.92 18.76,-2.44 37.87,7.87l50.01 21.39c9.63,3.07 16.83,1.89 26.67,4.32 19.82,4.9 6.51,4 20,9.77 19.65,8.42 75.81,13.91 111.92,32.35 12.58,6.42 12.78,2.64 22.84,7.41 19.3,9.16 4.7,5.23 13.97,16.71l16.57 13.85c11.28,-0.48 69.1,38.28 83.51,48.95 5.59,4.13 -0.02,0.78 8.64,6.51l238.55 159.86c5.04,3.33 3.32,1.77 8.88,6.16l150.09 99.82c0.56,0.53 1.3,1.39 1.87,1.92l4.05 3.71c0.63,0.53 1.52,1.22 2.17,1.74l142.09 97.06c0.53,0.57 1.21,1.48 1.73,2.06 12.78,14.4 9.5,8.67 32.69,23.78l91.19 57c2.19,1.47 1.23,1.2 4.9,3.12 13.67,7.18 8.3,-0.82 21.11,12.25l5.87 5.89c24.02,18.88 30.6,9.46 60.3,37.99 0.57,0.55 1.25,1.44 1.84,1.99l191.19 135.23c30.09,13.41 -0.13,-5.52 33.78,19.31l28.67 20.45c15.43,12.86 19.43,17.97 38.47,26.37l34.32 22.23c5.67,4.26 0.48,0.88 7.19,4.67 11.9,6.71 7.05,2.56 18.52,11.42 21.83,16.85 31.46,31.49 61.52,37.65l-46.33 -86.63c-9.86,-39.59 1.5,-75.45 18.66,-107.52 13.48,-25.19 41.35,-55.62 60.32,-76.09l7.26 -8.02c0.56,-0.56 1.37,-1.34 1.93,-1.9 4.3,-4.29 2.32,-1.61 7.62,-7.39 5.86,-6.39 9,-11 16.05,-18.16 26.34,-26.74 67.7,-81.5 89.73,-111.22l54.54 -77.57c3.1,-10.85 2.43,-54.34 -0.29,-65.62 -5.41,-22.5 -61.45,-72.83 -63.37,-137.61 -1.31,-44.2 -3.52,-59.99 11.47,-92.03 11.49,-24.58 21.79,-60.83 44.53,-92.11 4.83,-6.64 9.28,-10.59 14.44,-16.11 50.88,-54.34 103.54,-76.72 79.81,-112.18 -12.9,-19.26 -39.9,-28.1 -59.5,-38.81 -23.72,-12.96 -33.4,-11.75 -47.98,-39.88 -7.43,-14.34 -7.54,-23.93 0.77,-40.38 0.18,-0.36 7.09,-10.78 7.85,-11.56 6.88,-7.07 1.38,-1.02 8.66,-6.72 10.86,-8.52 5.57,-7.57 17.49,-16.46 30.97,-23.11 6.83,-2.79 33.16,-31.31l47.02 -40.11c13.45,-12.04 73.66,-64.39 89.91,-46.51 22.48,4.3 16.04,2.12 24.34,18.72 15.8,31.57 21.94,53.86 62.93,45.75 1.37,-0.42 21.54,-17.69 24.77,-20.79 45.34,-43.67 64.21,-113.21 33.51,-170.58 -11.65,-21.77 -21.71,-40.57 -54.49,-36.85 -51.3,71.56 -20.07,71.3 -102.39,62.06 -0.72,-2.17 -1.86,-5.76 -3.55,-8.16l-65.96 -48.29c-7.76,-4.59 -11.69,-5.14 -21.38,-6.09 -55.79,-5.44 -35.92,11.09 -63,34.08 -13.71,11.64 -26.93,44.43 -39.87,61.54 -17.68,23.38 -14.66,19.34 -27.59,17.07 -4.51,-25.79 -4.35,-39.09 6.46,-57.44l29.57 -61.44c15.88,-21.58 4.27,-16.23 13.43,-28.19l7.67 -6.7c20.38,-18.56 13.63,-20.59 30.75,-41.81l14.66 -19.08c14.4,-16.63 6.44,-13.84 20.18,-14.3 26.52,-21.74 40.28,-36.39 71.2,-54.63 4.95,-2.92 8.28,-4.17 12.12,-6.66 19.18,-12.42 59.25,-34.94 83.55,-26.62 17.83,6.1 37.83,42.54 44.95,58.58 4.46,10.04 13.54,24.11 21.09,31.33 12.1,11.57 13.9,11.04 28.56,20.96 37.84,25.62 55.39,37.38 121.47,28.82 19.73,-2.55 79.51,-47.61 91.28,-59.38 25.52,-25.52 -1.92,-44.95 -21.06,-58.84 -8.09,-5.87 -23.36,-17.9 -30.89,-21.96l-33.96 -15.33c-47.21,-17.71 -17.37,-17.73 -77.45,-20.06 -17.98,-0.69 -29.64,-4.32 -42.75,-11.91l-32.25 -31.99c-0.76,-0.78 -3.09,-2.82 -3.85,-3.64l-13.17 -17.34c-6.75,-9.53 -18.56,-50.2 -33.09,-69.26 -0.46,-0.6 -1.25,-1.4 -1.72,-2.01l-43.26 -51.59c-24.24,-24.62 -31.59,-24.69 -51.58,-39.37 -18.91,-13.88 -10.75,-3.57 -44.3,-16.5 -19.68,-7.58 -64.9,-4.84 -90.2,-8.38 -17.88,-2.51 -55.27,-21.72 -71.38,-31.2 -14.86,-8.74 -39,-33.45 -48.14,-48.24 -19.95,-10.34 -31.06,-28.82 -47.06,-45.79 -45.3,-48.04 -61.96,-68.06 -117.31,-61.84 -22.36,2.52 -25.36,5.66 -40.02,26.38 -31.22,44.15 -8.82,43.14 -3.46,85.1 4.18,32.77 -3.65,11.91 10.77,31.64l30.27 61.2c13.23,17.35 7.21,13.7 14.06,26.69l9.26 17.37c14.38,41.75 15.78,11.17 13.91,46.64 -26.27,16.83 -44.53,7.64 -65.21,-6.08l-117.93 -86.68c-8.06,-7.65 -2.71,-3.16 -12.66,-10.65l-27.23 -25.24c-0.56,-0.56 -1.33,-1.37 -1.89,-1.92l-58.97 -51.75c-28.84,-17.59 -4.27,-9.21 -57.29,-40.56 -11.78,-6.96 -19.51,-7.65 -32.28,-13.45 -27.72,-12.58 -45.35,-12.63 -66.56,4.51 -11.93,19.47 9.2,53.12 19.07,69.43 0.46,0.76 1.06,1.7 1.56,2.42l3.6 4.15c8.44,10.09 7.34,1.22 9.98,20.09 18.69,2.57 45.71,47.61 62.01,63.27 0.8,0.77 3.15,2.97 3.97,3.73l16.81 17.16c0.52,0.59 1.29,1.42 1.82,1.99l56.28 82.35c2.74,21.4 2.02,38.49 -8.25,50.45 -13.32,15.53 -15.84,16.47 -37.14,22.97 -13.69,4.18 -8.68,2.54 -24.46,4.43 -10.8,1.29 -6.22,0.13 -13.31,2.66 -11.26,4.02 -6.19,2.49 -11.88,6.51 -4.13,48.1 8.24,21.53 18.95,53.52l11.26 27.37c6.36,29.75 -7.84,51.8 -34.1,68.48 -28.87,18.34 -61.78,-5.03 -84.45,-21.26l-22.05 -19.42c-6.23,-6.76 -2.07,-0.89 -7.34,-10.64 -0.42,-0.78 -0.81,-1.86 -1.24,-2.66 -0.44,-0.81 -0.9,-1.85 -1.35,-2.66l-9.73 -16.3c-1.22,-2.83 -1.89,-5.97 -3.11,-8.48 -4.86,-9.98 -13.53,-18.46 -24.21,-22.81 -27.4,-11.16 -31.31,-14.73 -67.95,-16.91 -28.36,-1.69 -24.72,-12.04 -56.75,-13.01 -45.15,-1.37 -98.9,4.73 -143.48,-2.65 -14,-2.32 -9.49,-5.31 -22.06,-10.27 -21.63,-8.55 -53.05,-7.74 -79,-27.32l-21.86 -19.61c-0.5,-0.55 -1.31,-1.34 -1.79,-1.91 -0.47,-0.56 -1.26,-1.38 -1.71,-1.97 -13.5,-17.86 -20.89,-39.68 -21.68,-68.97 -1.09,-40.51 -6,-95.7 10.47,-129.39 6.87,-14.05 3.57,-17.19 6.54,-32.35 2.14,-10.88 5.85,-13.03 9.89,-23.04 5.35,-13.26 2.92,-20.36 7.34,-31.69l41.15 -75.52c0.47,-0.68 1.08,-1.61 1.54,-2.31l32.09 -43.79c0.52,-0.59 1.18,-1.51 1.7,-2.09 12.99,-14.53 30.32,-26.39 46.84,-36.07 4.68,-2.74 7.73,-3.41 12.59,-6.24l9.02 -6.43c11.65,-7.68 12.12,-4.58 25.63,-7.56 36.21,-7.97 0.57,-18.79 90.4,-14.57 24.76,1.16 25.04,11.95 55.85,15.19 8.57,0.9 24.84,1.49 33.57,3.81 15.43,4.11 7.3,6.49 24.29,9.97 22.9,4.68 39.52,0.9 59.83,7.98 14.28,4.98 9.2,7.07 30.94,8.67 10.94,0.8 22.22,-0.06 33.29,0.82 9.71,0.77 19.17,1.85 31.52,2.68 24.34,1.63 8.71,0.58 25,7.31 19.58,8.08 115.21,11.9 124.1,-13.33 9.61,-27.27 -31.81,-50.97 -65.76,-52.71 -6.79,-23.71 -5.71,-10.03 -27.5,-22.58l-53.04 -33.76c-9.19,-7.93 -13.31,-6.61 -17.95,-20.59 -13.32,-40.13 35.95,-11.11 56.5,-8.63 25.72,3.1 30.03,14.89 57.29,17.29 48.63,4.28 13.18,20.4 138.1,12.55 1.85,-34.68 -1.31,-24.11 -12.72,-42.62 -3,-4.87 -0.54,-2.62 -5.57,-10.24l-12.58 -24.26c-14.63,-35.81 -66.53,-79.65 -98.08,-101.35 -0.64,-0.44 -1.66,-0.98 -2.29,-1.42l-12.96 -12.31c-4.95,-4.5 -0.57,-0.84 -6.87,-5.2 -24.31,-16.8 -55.06,-36.54 -83.9,-46.25 -18.16,-6.11 -4.53,-2.07 -16.23,-9.09l-59.51 -21.86c-21.07,-5.29 -8.39,-9.67 -33.67,-14.85 -31.23,-6.4 -16.32,-2.31 -38.77,-13.04 -12.45,-5.96 -29.22,-4.28 -43.22,-10.13 -28.03,-11.71 -52.22,-9.96 -81.88,-20.24 -19.97,-6.92 -62.2,-6.58 -91.08,-14.43 -27.32,-7.42 -64.68,-6.02 -93.4,-8.47 -147.27,-12.58 -255.88,-15.01 -404.97,-10.48 -37.12,1.12 -155.06,19.24 -186.05,10.67 -9.54,-2.64 -5.42,-1.19 -11.1,-5.34z"/>
   <path class="fil1" d="M6292.59 4695.8l-1.06 2.72c14.1,-6.15 13.07,6.28 31.02,10.37 24.2,5.5 8.06,-4.69 38.44,10.88 15.32,7.86 24.16,4.48 40.01,9.29 16.17,4.91 6.1,4.19 17.64,8.9 18.86,7.7 13.37,-3.01 60.11,15.74 15.54,6.23 25.12,2.95 42.84,6.46 12.11,2.4 18.16,9.61 36.49,12.81 20.59,3.6 28.9,-1.16 47.49,5.59 12.39,4.5 20.99,9.67 38.46,10.84 17.62,1.19 32.81,0.39 45.89,3.41 16.3,3.75 19.99,7.48 38.81,10.49 17.07,2.73 34.29,0.78 51.82,1.28 31.16,0.87 59.87,10.7 88.08,14.31l399.98 -0.03c28.42,-3.7 59.63,-10.49 88.77,-13.62 40.87,-4.4 52.6,3.63 89.46,-9.14 31.08,-10.77 59.79,-1.97 89.31,-13.09 19.28,-7.26 15.27,-7.91 40.6,-8.7 49.26,-1.55 33.42,-12.23 60.75,-15.09 33.78,-3.54 28.39,5.42 64.43,-13.39 -26.36,-0.32 -31.42,-0.28 -27.63,-31.49 3.15,-25.95 10.16,-39.18 17.53,-70.49l36.92 -100.52c7.29,-12.07 3.74,-7.61 8.8,-21.53 2.66,-7.32 40.89,-80.04 41.47,-92.56 0.86,-25.84 -1.49,-13.38 9.39,-27 0.47,-0.59 1.28,-1.38 1.72,-2 0.46,-0.64 1.14,-1.55 1.57,-2.25 8.29,-13.44 -2.23,5.06 2.54,-5.21l28.38 -50.82c2.84,-4.46 4.23,-8.47 6.69,-12.51l63.87 -106.92c32.16,-50.4 26.91,-53.08 34.1,-64.92 5.67,-9.32 5.67,0.04 9.85,-21.26 11.76,-59.79 3.83,-60.2 -38.2,-56.35 -44.81,4.1 -4.62,7.76 -68.15,16.5 -33.62,4.63 -4.28,4.92 -26.7,12.44 -16.63,5.58 -56.55,2.05 -79.64,4.63 -18.8,2.11 -18.9,6.86 -31.55,9.6l-74.99 -0.94c-13.56,-5.08 -9.88,-7.31 -33.66,-9.28 -44.1,-3.65 -6.25,-2.52 -42.48,-17.06l-113.4 -67.39c-52.51,-30.69 -71.43,-33.28 -110.33,-52.87l-124.83 -35.67c-42.55,-3.45 -39.68,-0.8 -55.73,22.61l-33 46.28c-14.39,28 -22.02,27.11 -26.85,37.34 -1.84,3.9 -0.79,3.29 -2.88,8.31 -0.39,0.94 -0.73,1.98 -1.15,2.91 -0.43,0.92 -0.87,1.92 -1.33,2.82l-148.02 216.06c-6.58,8.4 -13.19,15.06 -19.42,19.76 -17.16,12.95 -34.48,22.12 -63.67,23.18 -69.04,2.49 -56.97,-3.8 -85.17,-20.29l-32.35 -21.83c-0.66,-0.5 -1.5,-1.22 -2.17,-1.71l-227.43 -165.76c-0.68,-0.43 -1.7,-0.91 -2.4,-1.33l-169.52 -120.09c-0.72,-0.44 -1.72,-0.95 -2.45,-1.37 -0.72,-0.43 -1.74,-0.9 -2.45,-1.33 -18.44,-10.92 -9.91,-12.18 -25.6,-15.22 -3.86,37.48 -3.08,687.12 0.98,725.47z"/>
   <path class="fil2" d="M8926.93 3481.21c-5.45,3.6 -8.58,10.43 -14.32,16 -83.52,81.03 -161.13,-29.67 -245.19,24.02 -11.6,7.41 -7.82,3.22 -17.19,13.45 -14.85,16.2 -43.17,45.96 -64.35,52.75 -8.11,18.76 -13.82,17.39 -40.4,20.54 -58.5,6.96 -102.44,2.75 -161.05,0.52 -37.34,-1.42 -25.8,5.73 -45.47,11.52 -6.19,1.82 -13.88,1.54 -22.64,4.33 -13.48,4.3 -35.17,23.96 -46.51,34.03 -16.6,14.74 -33.33,36.89 -44.33,55.38 -12.55,21.09 -59.36,70.9 -76.7,92.93 -27.38,34.8 -53.97,53.74 -92.23,101.72l-63.61 49.48c-0.68,0.49 -1.55,1.21 -2.2,1.72 -26.43,20.46 -20.7,9.92 -50.06,33.63 -10.83,8.75 -15.91,5 -29.83,8.12 -20.22,4.53 -10.7,10.44 -40.62,15.64 -22.27,3.86 -25.81,8.55 -40.99,12.26 -21.09,5.16 -80.38,3.47 -104.58,2.81 -68.26,-1.85 -44.71,-7.08 -69.36,-13.91 -29.45,-8.16 -63.33,-23.15 -77.87,-55.96 -35.93,-81.1 -4.54,-88.22 -2.6,-135.75 0.75,-18.31 0.79,-35.16 -2.32,-53.22 -13.61,-17.17 -34.16,-27.92 -67.67,-22.47l-103.84 28.69c-12.6,1.92 -26.77,2.55 -36.37,5.99 -50.07,17.95 -32.43,5.5 -74.13,13.68 -14.92,10.14 -27.95,10.1 -52.76,10.89l-43.71 58.16c-11.02,15 -31.59,46.92 -40.27,62.01 42.34,-5.26 81.54,10.94 108.51,17.39l161.65 65.57c17.1,6.75 44.29,25.65 58.09,36.77 47.88,38.58 45.42,20.97 82.79,46.24 46.26,31.28 168.83,12.68 221.59,-0.47 19.07,-4.75 35.95,-4.95 54.78,-9.75 24.75,-6.31 98.98,-38.4 112.55,2.23l1.69 22.74c-2.16,26.56 -15.75,51.88 -27.12,74.78l-23.6 40.61c-41.03,61.28 -62.45,103.71 -98.16,163.13 -7.74,12.89 -7.59,19 -18.46,31.1 -5.15,5.73 -2.28,4.04 -9.05,8.74 -0.58,12.52 -38.81,85.24 -41.47,92.56 -5.06,13.92 -1.51,9.46 -8.8,21.53l-36.92 100.52c-7.37,31.32 -14.38,44.55 -17.53,70.49 -3.79,31.21 1.27,31.17 27.63,31.49 18.25,-3.39 33.27,-0.89 47.15,-7.75 22.39,-11.06 -0.31,-5.8 40.8,-12.29 30.05,-4.75 14.43,-10.88 38.06,-15.03 9.71,-1.7 14.61,0.31 24.03,-2.51 14.08,-4.22 8.81,-7.57 18.91,-11.42 10.01,-3.81 12.98,-0.91 23.47,-3.08 14.03,-2.9 8.82,-4.39 17.19,-9.36 14.33,-8.51 3.77,-2.39 21.15,-5.4 21.25,-3.69 11.36,-7.99 28.37,-13.35 5.68,-1.79 6.98,-0.87 12.82,-2.35 23.76,-6 -2.41,-5.03 37.36,-15.73 21.95,-5.9 9.05,-7.09 28.19,-13.52 24.37,-8.18 3.18,4.83 29.75,-11.96 18.56,-11.73 0.53,3.47 35.42,-17.67 12.46,-7.55 8.09,-1.53 19.8,-6.75 9.93,-4.43 5.95,-6.23 15.88,-10.66l28.17 -13.54c27.05,-16.28 -13.37,3.85 10.98,-4.19l51.62 -28.02c4.32,-2.31 5.99,-2.32 10.8,-4.37l43.57 -24.69c16.38,-10.4 17.5,-4.99 30.86,-22.25l1.28 -17.54 18.76 -7.87c8.32,-8.28 3.73,-6.1 14.14,-12l15.55 -11.32c6.71,-4.38 3.26,-1.29 10.22,-4.7l70.12 -44.16c12.53,-7.12 15.38,-14.43 24.97,-24.66 0.52,-0.56 1.19,-1.49 1.72,-2.02l29.14 -19.51c3.99,-2.45 7.07,-3.39 10.02,-5.57l19.29 -17.58c0.68,-0.49 1.63,-1.1 2.3,-1.61 0.68,-0.52 1.59,-1.18 2.26,-1.72l10.24 -9.38c16.19,-16.42 24.46,-16.89 44.57,-31.13l70.66 -61.87c0.65,-0.48 1.61,-1.07 2.26,-1.57 0.64,-0.49 1.57,-1.13 2.2,-1.64 0.64,-0.5 1.5,-1.21 2.12,-1.72l109.93 -98.48c0.55,-0.57 1.33,-1.38 1.89,-1.96 0.56,-0.57 1.38,-1.35 1.94,-1.93l176.82 -210.46c0.51,-0.62 1.19,-1.54 1.69,-2.16 12.13,-15.08 26.6,-24.76 33.73,-43.25 4.87,-12.65 0.54,-6.31 9.17,-15.78 0.52,-0.57 1.35,-1.37 1.89,-1.93 0.54,-0.58 1.34,-1.4 1.89,-1.98l33.4 -35.77c5.3,-11.33 1.44,-12.33 10.35,-22.94 24.54,-29.24 23.02,-41.01 40.73,-61.54 0.48,-0.56 1.34,-1.24 1.85,-1.8 12.21,-13.28 3.26,-7.05 14.27,-24.48l6.98 -7.73c0.53,-0.64 1.26,-1.53 1.78,-2.19 0.52,-0.66 1.15,-1.61 1.66,-2.27 14.96,-19.77 15.28,-7.58 16.84,-39.02 20.41,-8.63 10.29,-0.39 19.99,-18.29 0.43,-0.8 0.83,-1.82 1.27,-2.62 0.43,-0.77 0.91,-1.73 1.35,-2.5l17.92 -35.61c0.45,-0.71 1.16,-1.58 1.59,-2.32 6.87,-11.74 5.81,-17.21 15.76,-25.77l5.2 -3.9c0.02,-9.57 1.68,-21.75 -0.01,-30.64 -3.46,-18.22 -20.67,-24.36 -34.64,-34.82l-6.25 -5.04c-10.42,-7.53 -14.57,-6.21 -23.72,-15.03 -24.94,-24.05 -88.62,-55.21 -119,-34.85 -17.02,11.41 -38.33,14.62 -56.01,27.41 -11.82,8.55 -17.13,22.14 -31.38,28.49z"/>
   <path class="fil3" d="M3558.35 1793.72c4.74,18.76 11.84,24.35 14.74,49.43 10.84,93.71 8.1,45.62 16.25,82.22 2.26,10.15 1.59,20.15 3.45,30.99 3.14,18.26 3.99,4.92 11.3,21.75 5.4,12.43 1.43,17.78 5.07,29.89 3.34,11.1 5.24,4.81 10.49,19.49 3.58,10.01 1.85,17.71 6.29,27.89 5.13,11.78 5.44,3.63 11.43,22.92 5.48,17.63 2.02,9.81 10.92,22.3 14.66,20.58 17.83,58.15 27.7,70.95l19.76 37.54c10.83,18.28 -5.43,-1.62 17.31,32.01l59.4 100.06c0.54,1.02 2.14,3.98 2.67,5.01 0.41,0.79 0.88,1.79 1.29,2.58l15.31 22.31c2.5,3.61 2.68,4.82 5.68,9.71 5.41,8.82 1.13,1.55 6.02,8.92l37.93 48.92c6.27,8.17 9.61,10.68 14.31,20.66 10.62,22.52 -3.61,6.05 14.62,17.76 10.86,6.98 48.8,58.58 60.43,73.2 5.93,7.46 8.72,10.61 15.95,18.07 6.72,6.93 10.19,11.34 16.25,17.85 21.08,22.63 39.15,49.62 61.71,71.02 54.36,51.58 47.02,71.43 120.77,31.76l65.77 -47.81c8.01,-7.27 3.93,-4.83 9.07,-9.81 17.18,-16.64 9.76,-0.08 50.76,-47.99 3.74,-4.36 3.69,-3.64 7.52,-7.17l9.67 -9.54c12.33,-13.93 14.4,-24.72 28.42,-39.9 10.27,-11.12 7.18,-4.59 12.62,-19.53l27.61 -38.91c14.1,-19.72 -7.21,-0.42 17.91,-35.29l37.12 -79.63c-2.68,-18.12 1.01,-14.01 7.8,-26.67 6.88,-12.83 3.27,-17.63 7.99,-30.5 3.64,-9.9 8.4,-10.22 11.39,-25.65l20.59 -93.76c7.43,-24.7 12.15,-27.08 10.05,-63.31 -17.43,-9.98 -6.06,0.47 -40.03,-20.25 -35.19,-21.47 -80.63,-44.35 -110.96,-71.44 -22.75,-20.32 -36.17,-22.13 -59.46,-46.83l-74.61 -65.47c-11.56,-10.62 -19.96,-15.82 -32.68,-27.98l-66.32 -70.15c-13.62,-12.13 -32.71,-17.47 -62.85,-59.03l-36.17 -39.28c-6.81,-7.05 -9.05,-11.86 -13.37,-16.98 -9.76,-11.56 -4.13,-2.4 -17.64,-12.66 -5.23,-3.97 -3.99,-2.9 -7.66,-7.74 -4.75,-6.26 -3.82,-3.74 -7.85,-13.42l-50.75 -56.22c-4.96,-8.14 -6.11,-8.09 -11.59,-15.28l-46.67 -59.49c-1.14,-1.42 -4.74,-6.47 -6.35,-8.7l-3.22 -4.43c-0.47,-0.64 -1.16,-1.53 -1.63,-2.17 -5.81,-7.89 -5.03,-7.13 -10.38,-15.6l-10.46 -16.38c-24.97,-46.49 -34.54,-36.43 -36.45,-69.43 -11.16,2.71 -19.24,13.68 -28.59,25.25 -3.43,4.25 -4.94,6.94 -8.14,10.82 -4.56,5.54 -3.94,4.16 -7.16,8.01 -3.86,4.63 -4.53,6.02 -8.17,10.79l-3.37 4.21c-19.3,25.67 -46.72,68.68 -56.38,91.51 -7.18,16.97 -13.3,20.97 -32.59,69.8l-15.63 37.46c-7.84,23.12 -7.92,1.31 -14.53,38.55 -4.5,25.32 -3.98,10.02 -11.09,26.83 -4.84,11.44 -2.38,18.63 -5.18,32.77 -3.41,17.23 -6.94,8.81 -13.41,23.2z"/>
   <path class="fil3" d="M5596.23 1798.63l-49.25 -141.1 -126.5 -214.12c-2.19,-2.79 -2.41,-3.61 -4.77,-6.65l-5.07 -6.15c-0.51,-0.59 -1.21,-1.43 -1.74,-2.02l-5.8 -6.1c-7.93,-6.55 9.53,0.09 -11.6,-6.73 -2.23,22.5 -23.17,39.19 -30.8,59.48l-29.01 42.12c-0.52,0.67 -1.13,1.63 -1.63,2.3l-60.85 79.2c-13.64,25.04 3.76,6.67 -17.58,26.64l-29.31 36.16c-44.82,53.94 -109.17,123.29 -160.03,169.66 -8.6,7.84 -14.95,12.87 -24.38,21.29l-65.64 63.05c-11.36,11.98 -25.06,18.37 -36.27,28.4l-203.05 149.37 -46.19 22.05c-3.22,35.93 2.11,27.19 8.38,52.4 7.76,31.23 -3.18,22 13.81,47.05 10.32,15.2 3.05,31.27 7.27,52.82l30.74 95.27c12.46,77.59 6.06,45.99 26.51,96.51 5.36,13.25 8.78,9.04 15.6,17.82 0.37,0.47 1,1.46 1.37,1.99 1.49,2.11 5.41,8.5 7.29,11.44 0.45,0.71 1.07,1.62 1.52,2.33l23.01 33.78c5.33,8.56 6.67,9.86 11.65,18.93 1.2,2.19 4.97,9.63 5.2,9.97l68.08 72.1c25.01,22.88 62.74,46.22 95.58,59.95 8.87,3.71 16.24,2.79 25.4,4.94 28.02,6.59 9.23,13.61 53.93,11.23l28.51 -31.74c24.17,-22.82 60.2,-72.98 65.71,-78.29l4.04 -3.59c40.66,-37.47 49.71,-62.37 92.28,-108.66 13.07,-14.21 18.58,-32.92 33.87,-45.89l50.36 -59.45c8.06,-15.87 4.29,-9.15 12.94,-21.28 8.44,-11.82 15.86,-27.88 24.22,-40.45l9.93 -21.01c5.23,-10.7 8.07,-8.68 14.33,-19.16 4.83,-8.07 5.19,-11.88 10.26,-20.26l67.35 -142.16c2.41,-7.4 1.98,-11.04 2.38,-18.78 13.68,-4.01 6.75,-1.81 13.52,-7.58 2.23,-30.36 -1.53,-16.74 9.62,-34.51 12.36,-19.7 -1.52,-17 19.2,-48.2 19.83,-29.87 16.79,-70.01 27.1,-91.59 12.77,-26.72 10.24,-91.16 28.49,-112.78z"/>
   <path class="fil3" d="M5017.4 5286.69c-12.44,0.56 -31.18,14.93 -41.86,22.97l-6.01 5.11c-57.32,49.75 -47.71,23.65 -72.94,44.25l-19.68 11.34c-41.01,24.99 -15.28,-5.01 -44.77,19.14 -19,15.56 -79.68,24.22 -96.29,32.97 -17.92,9.44 -78.98,12.29 -90.43,6.19 -11.79,-6.29 -5.45,-5.55 -12.71,-20.73 -7.52,-15.71 -5.81,-3.58 -12.56,-16.83l-17.39 -44.08c-7.43,-47.73 -7.8,-20.62 -15.43,-44.14 -5.88,-18.12 -2.84,-155.72 -2.5,-179.64 1.18,-83.66 11,-46.77 16.56,-72.96l3.64 -35.48 13.3 -15.13c2.21,-6.83 1.47,-27.31 1.6,-35.39l14.59 -7.62c0.82,-49.75 3.26,-16.22 18.42,-59.3 6.75,-19.18 7.78,-5.35 15.47,-33.28 1.58,-5.76 0.4,-3.31 2.83,-9.39 13.55,-33.99 11.19,-33.09 27.36,-38.61 0.36,-5.2 0.29,-10.3 1.55,-15.45 2.88,-11.75 19.98,-37.91 28.53,-48.81l40.05 -51.34c4.47,-4.44 11.11,-9.44 16.15,-14.12 36.34,-33.78 41.05,-40.51 81.65,-70.51 12.64,-9.34 21.67,-18.45 33.83,-26.43 8.6,-5.64 11.26,-5.49 19.38,-11.13 21.81,-15.13 18.74,-6.55 30.13,-15.42l156.23 -70.87c15.77,-4.39 36.77,-4.35 53.5,-7.44 64.03,-11.82 39.93,3.32 64.25,44.66 9.78,16.63 30.92,122.64 33.88,148.09 6.25,53.84 -1.59,173.93 -18.16,220.58 -3.6,10.13 -6.15,11.7 -8.51,21.79 -10.62,45.58 0.35,8.82 -14.84,45.67 -3.62,8.77 -3.52,15.17 -7.39,23.12l-52.71 99.5c-8.11,10.25 -3.64,9.2 -9.62,19.64 -0.5,0.87 -1.12,1.79 -1.65,2.62l-5.35 6.42c-9.46,12.99 -3.09,15.5 -13.14,32.41l-26.37 37.87c-0.5,0.69 -1.14,1.61 -1.66,2.29l-3.61 4.2c-0.09,0.1 -6.38,6.45 -7.46,7.54l-5.59 5.66c-12.61,13.3 -7.27,12.5 -21.18,28.25 -5.7,6.46 -8.33,9.54 -15.03,15.49 -12.18,10.81 -25.48,20.24 -28.02,36.32zm0 0c22.6,-4.38 66.12,-64.02 79.67,-79.73l41.29 -56.74c2.53,-4.72 1.56,-4.15 3.54,-7.93 4.01,-7.66 2.36,-4.3 4.38,-7.28 5.72,-8.47 2.09,-0.42 7.75,-11.21 15.6,-29.71 39.67,-62.11 49.72,-94.64 4.79,-15.52 9.43,-16.56 13.2,-28.45l29.68 -92.25c3.98,-11.72 2.47,-23.98 6.64,-35.33 3.42,-9.31 8,-11.14 10.94,-24.85 7.34,-34.21 3.74,-163.82 1.59,-202.83 -1.53,-27.79 -10.85,-29.51 -15.54,-67.58 -2.4,-19.47 -12.23,-24.96 -14.73,-42.27 -1.12,-7.78 -0.42,-12.62 -2.12,-20.99 -2.47,-12.19 -24.96,-42.44 -35.95,-45.46 -25.17,-6.9 -48.69,3.56 -67.74,9.06 -15.05,4.34 -25.14,1.81 -39.92,3.34 -17.64,1.82 -13.61,5.2 -23.43,15.37 -23.07,2.62 -21.47,-0.74 -36.39,9.58l-16.27 7.42c-16.37,4.81 -16.37,10.4 -33.28,15.99 -12.96,4.28 -7.17,0.47 -17.36,8.23l-166.62 121.73c-18.94,19.45 -30.97,25.28 -38.92,33.13l-50.13 71.64c-16.97,32.35 -35.99,61.72 -50.59,95.75 -13.23,-7.76 -8.86,-13.93 -14.58,-29.86l-30.6 -79.17c-7.88,-9.96 0.01,4.75 -8.47,-10.27l-19.99 -36.84c-24.67,-45.99 -87.59,-133.1 -126.06,-166.21l-57 -45.42c-7.18,-5.89 -3.61,-3.84 -10.46,-8.23 -36.24,-23.23 -123.76,-80.23 -157.25,-93.13 -12.16,-4.68 -15.31,-10.33 -27.6,-14.03l-58.11 -18.86c-37.87,-11.61 -25.09,-26.91 -85.41,-31.3 -17.93,-1.3 -20.43,-5.48 -31.17,-10.31 -15.81,-7.11 -52.83,-6.44 -73.57,-3.82 -19.81,43.54 -11.88,23.08 -19.73,59.36 -3.92,18.14 -9.74,11.67 -13.47,39.35 -3.51,26.01 -10.21,33.72 -14.82,53.41 -3.66,15.66 -3.83,44.12 -6.27,62.36 -9.93,74.28 -10.83,23.92 -10.81,121.84 0,53.83 -5.22,86.28 11.52,127.85 0.33,0.82 0.77,1.79 1.06,2.66l15.93 75.41c7.26,25.71 12.02,50.44 25.26,76.95 19.14,38.32 32.35,79.2 56.89,114.15 15.58,22.19 7.56,21.83 27.21,40.75 7.17,6.91 9.72,11.29 15.21,19.28 34.2,49.8 108.23,128.07 154.93,170.89 0.58,0.53 1.42,1.29 2.01,1.82l112.09 77.7c0.67,0.43 1.57,1.07 2.22,1.53l55.5 28.36c14.77,5.07 3.63,4.38 17.38,12.14 7.18,4.06 16.68,5.29 25.14,9.26 12.68,5.95 7.34,4.18 24.83,9.24 23.19,6.71 6.82,3.7 22.11,11.64l116.3 19.47c38.48,0.75 99.61,6.32 129.92,-5.92 27.32,-11.03 39.01,-1.95 61.88,-7.87 19.64,-5.08 3.11,-13.51 54.84,-14.71 6.45,-23.02 -7.12,-9.36 20.17,-16.17 28.6,-7.14 53.7,-29.7 78.78,-44.14l37 -23.38c6.95,-3.69 8.77,-5.28 14.01,-9.53 12.9,-10.48 29.68,-19.43 39.53,-32.41 6.01,-7.91 0.56,2.47 4.26,-7.48z"/>
   <path class="fil4" d="M4411.87 2353.33l-0.33 1143.07c0.16,74.94 -3.37,157.41 0.12,231.34 1.48,31.23 6.37,22.2 15.32,39.88l48.49 80.84c4.66,4.47 1.14,2.79 7.7,6.11 8.89,4.5 9.92,1.18 22.09,9.37 23.75,15.97 59.91,9.59 102.25,9.19 50.75,-0.48 40.75,-3.05 78.9,-28.64 42.19,-28.3 33.09,-30.89 51.77,-69.32 10.96,-22.53 4.79,-301.78 4.84,-339.45l0.43 -921.5c-0.03,-36.86 1.62,-77.43 -0.77,-113.85 -3.82,-58.29 -13.5,-33.08 -18.69,-65.41 -3,-18.66 0.96,-10.58 -7.01,-24.84 -12.21,-21.85 -5.34,-20.93 -11.17,-45.65 -3.44,-14.55 -10.15,-24.53 -12.98,-43.37 -3.67,-24.48 -5.76,-27.75 -11.02,-47.36 -4.3,-16.03 -4.51,-35.6 -7.77,-52.83 -25.16,-3.07 -177.85,-3.9 -191.78,2.72 -7.67,16.04 -2.59,38.46 -12.13,59.76 -10.22,22.8 -4.56,43.49 -13.83,62.41 -18.59,37.95 -2.09,20.62 -18.82,56.12 -12.94,27.48 1.66,29.77 -25.63,51.41z"/>
   <path class="fil5" d="M5017.4 5286.69c2.55,-16.09 15.85,-25.52 28.02,-36.32 6.7,-5.94 9.33,-9.03 15.03,-15.49 13.91,-15.75 8.57,-14.95 21.18,-28.25l5.59 -5.66c1.08,-1.09 7.38,-7.44 7.46,-7.54l3.61 -4.2c0.52,-0.68 1.16,-1.59 1.66,-2.29l26.37 -37.87c10.05,-16.91 3.68,-19.41 13.14,-32.41l5.35 -6.42c0.54,-0.82 1.16,-1.74 1.65,-2.62 5.97,-10.44 1.51,-9.39 9.62,-19.64l52.71 -99.5c3.87,-7.95 3.77,-14.35 7.39,-23.12 15.2,-36.85 4.22,-0.09 14.84,-45.67 2.35,-10.1 4.91,-11.67 8.51,-21.79 16.57,-46.65 24.41,-166.75 18.16,-220.58 -2.96,-25.45 -24.1,-131.46 -33.88,-148.09 -24.31,-41.35 -0.21,-56.49 -64.25,-44.66 -16.73,3.09 -37.72,3.05 -53.5,7.44l-156.23 70.87c-11.39,8.86 -8.32,0.29 -30.13,15.42 -8.12,5.64 -10.79,5.49 -19.38,11.13 -12.16,7.98 -21.19,17.09 -33.83,26.43 -40.6,30 -45.31,36.73 -81.65,70.51 -5.03,4.68 -11.67,9.67 -16.15,14.12l-40.05 51.34c-8.55,10.9 -25.65,37.06 -28.53,48.81 -1.26,5.15 -1.19,10.24 -1.55,15.45 -16.17,5.53 -13.81,4.63 -27.36,38.61 -2.43,6.09 -1.25,3.63 -2.83,9.39 -7.69,27.93 -8.72,14.1 -15.47,33.28 -15.16,43.08 -17.6,9.55 -18.42,59.3l-14.59 7.62c-0.13,8.08 0.6,28.56 -1.6,35.39l-13.3 15.13 -3.64 35.48c-5.56,26.18 -15.38,-10.7 -16.56,72.96 -0.34,23.92 -3.38,161.52 2.5,179.64 7.64,23.52 8,-3.59 15.43,44.14l17.39 44.08c6.75,13.25 5.05,1.12 12.56,16.83 7.26,15.18 0.91,14.44 12.71,20.73 11.45,6.1 72.51,3.25 90.43,-6.19 16.62,-8.75 77.3,-17.41 96.29,-32.97 29.49,-24.15 3.76,5.85 44.77,-19.14l19.68 -11.34c25.23,-20.6 15.62,5.5 72.94,-44.25l6.01 -5.11c10.68,-8.04 29.43,-22.41 41.86,-22.97z"/>
   <path class="fil4" d="M3762.59 1414.5c1.91,33.01 11.48,22.94 36.45,69.43l10.46 16.38c5.35,8.48 4.57,7.72 10.38,15.6 0.47,0.64 1.16,1.53 1.63,2.17l3.22 4.43c1.61,2.23 5.21,7.28 6.35,8.7l46.67 59.49c5.48,7.19 6.63,7.14 11.59,15.28l50.75 56.22c34.86,10.38 2.56,15.3 64.44,14.97l868.42 4.14c100.04,0.92 221.46,5.84 319.39,-1.14l106.3 -139.51c30.43,-34.9 14.05,-17.77 35.42,-48.09 19.35,-27.46 25.79,-33.27 40.81,-71.7l-14.33 -4.24 -358.65 0.88c-39.39,0.05 -99.87,8.25 -107.49,-11.65l-135.06 5c-301.23,3.72 -624.49,-0.15 -929.24,-0.15l-59.77 0.75c-9.15,1.97 -3.31,-0.17 -7.74,3.04z"/>
   <path class="fil4" d="M2439.53 2309.45c1.46,24.5 22.25,42.16 33.67,63.8 15.71,29.77 37.05,70.1 47.85,100.39 3,8.39 24.49,44.52 30.84,67.63 2.87,10.45 1.25,11.23 5.67,20.93l22.8 53.52c6.82,21.02 -0.81,18.82 12.12,36.32 9.8,13.27 20.81,53.89 25.36,73.52 4.76,20.52 10.34,12.63 13.87,35.38 4.69,30.26 4.32,16.36 12.14,37.09 5.74,15.23 1.11,25.16 9.07,40.48l46.01 154.04c4.35,14.31 8.88,19.39 11.33,38.39 4.86,37.65 22.61,86.39 29.36,118.66 3.58,17.15 3.14,29.96 8.91,44.01 19.24,46.92 4.97,46.82 18.25,80.2 7.5,18.86 6.96,15.55 8.21,40.56 0.94,18.82 10.47,43.05 15.73,87.25 4.15,34.88 10.09,1.08 17.28,79.81l8.44 23.49c6.45,7.99 6.12,-3.18 5.58,6.65 -5,90.96 11.2,83.82 13.38,117.39 0.99,15.13 0.7,30.71 1.42,45.84 1.41,29.82 12.62,42.4 14.63,71.85 1.54,22.54 0.11,65.97 7.87,82.92 13.92,-4.67 12.09,-12.66 12.47,-44.91l-0.25 -1551.05c0,-44.58 7.49,-198.4 -6.25,-223.74l-425.75 299.58z"/>
   <path class="fil4" d="M6300.43 2031.29l-12.89 4.05c-5.72,102.1 -0.15,358.51 -0.37,478.88l-0.15 955.63c-0.09,51.41 7.99,197.14 -6.07,232.31 -10.59,26.47 -4.67,190.4 -3.3,232.76 1.71,-9.04 2.06,-20.5 4.3,-26.52 7,-18.82 13.3,-13.22 14.85,-13.81 1.64,-29.54 4.47,-57.26 5.31,-91.16 0.86,-34.57 12.08,-52.63 11.69,-87.15 -0.64,-57.41 -0.21,-81.57 15.97,-128.38 9.66,-27.92 -6.59,-30.53 12.79,-82.22 15.64,-41.7 -6.89,-36.24 15.85,-82.07 14.26,-28.75 -5.25,-42.44 13.83,-81.38 8.99,-18.35 6.7,-20.27 6.97,-43.21 0.35,-29.28 2.27,-18.22 12.34,-35.78 8.44,-14.71 3.54,-24.77 5.54,-43.45 2.26,-21.06 9.03,-21.19 12.98,-32.68 4.5,-13.1 -0.09,-29.83 4.36,-45.13 4.79,-16.5 10.97,-15.76 12.85,-36.48 2.24,-24.67 -3.72,-22.59 8.2,-41.43 10.5,-16.59 6.28,-15.57 7.82,-38.06 2.17,-31.9 9.19,-9.09 13.07,-37.44 2.12,-15.55 -1.59,-32.11 4.84,-43.36 11.46,-20.07 7.42,2.78 14.51,-34.49 5.89,-30.93 9.19,-3.51 13.34,-32.41 3.78,-26.33 -3.35,-17.13 9.31,-39.66 11.3,-20.12 2.19,-23.38 9.49,-40.2 9.25,-21.29 10.26,2 12.74,-37.85 1.84,-29.52 7.28,-11.65 13.58,-30.64 7.29,-21.98 -5.54,-17.83 9.87,-38.78 2.46,-3.35 2.28,-1.09 4.86,-7.16 5.61,-13.2 -0.18,-16.8 8.13,-29.55 8.76,-13.45 9,-0.06 10.45,-41.64l16.31 -11.38c0.86,-31.68 0.28,-18.1 11.2,-37.55 2.03,-3.61 1.03,-0.08 3.52,-8.48 1.35,-4.56 0.8,-5.89 1.85,-9.89 4.37,-16.68 1.28,-5.46 9.54,-15.81 8.95,-11.22 2.85,-0.9 7.03,-15.48 7.08,-24.7 5.8,-7.47 15.53,-37.98 3.15,-9.9 3.68,-9.81 8.47,-17.92 15.7,-26.59 -0.48,-17.19 15.06,-34.5 22.41,-24.96 -3.32,-5.63 17.68,-35.17 12.55,-17.65 2.94,-10.16 10.97,-23.3l13.28 -28.03c6.13,-17.45 2.82,-0.98 10.59,-16.5 -7.61,-18.28 -32.21,-29.66 -47.93,-39.5 -5.22,-3.27 -17.76,-12.53 -24.33,-17.31l-238.83 -159.27c-0.59,-0.44 -1.39,-1.22 -1.96,-1.68l-3.83 -3.51c-0.59,-0.49 -1.42,-1.25 -2.03,-1.73l-52.03 -35.56c-9.6,-6.74 -4.51,-4.48 -12.91,-9.57 -21.03,-12.74 -18.67,-1.63 -24.21,-21.41z"/>
   <path class="fil4" d="M523.32 8028.05c-29.18,0 -66.11,4.64 -93.71,-4.88l-65.85 -28.96c-8.87,-5.43 -2.16,-1.07 -6.7,-4.68l-56.07 -53.9c-0.51,-0.6 -1.26,-1.42 -1.78,-2.02l-43.66 -62.52c-0.39,-0.77 -0.87,-1.76 -1.28,-2.51l-25.72 -46.33c-7.38,-18.27 -14.53,-28.54 -18.4,-49.86 -4.19,-23.1 -4.35,-14.8 -10.81,-30.91l-21.1 -111.62c0,-52.69 -6.18,-148.11 4.22,-196.77 2.58,-12.08 8.4,-23.34 10.06,-35.44 2.14,-15.54 1.34,-30.07 4.15,-41.36l21.61 -69.4c7.82,-15.32 5.86,-21.3 11.44,-34.07l39.76 -74.01c13.4,-19.82 26.59,-40.98 43.8,-58.59 3.11,-3.18 2.62,-2.49 5.75,-5.63 2.73,-2.74 2.6,-2.68 5.63,-5.74 17.65,-17.78 51.87,-43.01 75.25,-49.89l77.91 -16.89c23.81,0 51.36,-0.47 72.03,7.61 18.52,7.23 37.92,6.97 54.31,17.74 24.01,15.76 29.4,12.68 56.91,37.89l93.96 141.15c3.58,13.45 1.62,7.57 7.99,18.56l22.29 72.51c0.83,8.95 0.75,11.67 3.33,19.42 4.15,12.43 3.61,6.36 7.61,15.14 6.92,15.2 2.49,24.84 4.93,44.37 14.3,114.7 14.14,25.05 14.14,186.84 0,15.71 -4.32,20.98 -7.37,34.34 -4.72,20.7 -4.56,64.95 -10.48,80.53l-11.88 33.63c-3.26,25.65 -0.3,12.7 -10.41,31.31 -8.1,14.9 -3.14,17.66 -12.13,33.37l-111.95 157.3c-7.41,6.2 -19.08,15.87 -25.67,19.83l-12.07 6.89c-13.64,9.09 -32.67,14.52 -50.45,21.6 -10.83,4.31 -25.77,5.92 -39.58,5.92zm-523.32 -511.94c0,98.29 6.05,72.31 14.99,155.66 3.02,28.17 8.91,16.89 13.8,43.08 2.92,15.61 -0.65,12.25 5.83,24.51 0.39,0.74 1.09,1.58 1.51,2.28 0.41,0.7 1.15,1.52 1.57,2.22 7.56,12.49 7.71,25.05 14.5,34.79l83.33 125.24c18.43,19.98 35.88,39.36 57.8,55.96 32.31,24.48 63.82,45.68 100.2,62.86 0.79,0.37 1.76,0.88 2.51,1.28l143.85 41.97c46.94,0 106.03,6.37 148.55,-10.72 17.34,-6.97 31.42,-3.04 49.15,-11.52 11.35,-5.43 6.46,-4.44 21.47,-8.86l79.95 -41.4c37.79,-25.04 75.81,-53.65 104.93,-88.47l3.42 -4.17c24.98,-29.82 54.55,-61.22 70.71,-96.14l15.17 -30.34c1.2,-2.78 2.51,-7.44 4.19,-10.97 5.58,-11.68 6.09,-5.85 11.1,-19.24 3.1,-8.3 2.64,-14.63 6.6,-23.73 13.15,-30.23 10.74,-38.04 22.34,-68.68 13.16,-34.79 11.99,-198.09 0.21,-233.52l-75.4 -174.89c-4.93,-7.62 -6.55,-8.87 -12.29,-18.04l-28.48 -35.99c-0.51,-0.6 -1.22,-1.47 -1.72,-2.07l-44.05 -46.96c-0.56,-0.54 -1.35,-1.34 -1.91,-1.89l-49.56 -41.46c-9.25,-6.08 -9.14,-7.74 -17.54,-12.8 -2.76,-1.67 -7.6,-3.83 -9.88,-5.29 -0.68,-0.44 -1.59,-1.07 -2.25,-1.54 -21.98,-15.33 -45.15,-25.04 -68.7,-37.48 -15.09,-7.97 -8.12,-2.46 -23.99,-6.35 -15.98,-3.91 -10.04,-6.62 -22.64,-11.49 -11.44,-4.43 -38.5,-4.02 -55.21,-9.26 -39.16,-12.28 -90.97,-10.7 -129.86,0.98 -16.7,5.01 -40.28,3.78 -52.35,8.33 -12.16,4.58 -4.03,5.16 -20.22,10.11 -44.91,13.75 -24.29,11.17 -43.51,17.16 -18.62,5.8 -8.65,1.55 -23.55,10.57l-29.75 15.76c-0.64,0.47 -1.47,1.2 -2.13,1.67l-25.6 16.12c-3.75,2.51 -6.15,3.63 -9.29,5.87l-37.57 30.69c-0.6,0.51 -1.45,1.24 -2.05,1.75 -0.6,0.51 -1.42,1.26 -2.02,1.78 -26.5,23.03 -47.31,47.62 -70.31,73.8l-3.59 4c-0.5,0.61 -1.22,1.46 -1.71,2.08 -0.49,0.63 -1.15,1.53 -1.62,2.17 -21.65,29.19 -58.39,89.51 -63.83,110.61l-13.58 31.92c-2.51,7.9 -2.3,17.27 -4.92,25.42 -4.45,13.8 -7.45,10.01 -10.48,23.65 -3.77,16.97 -2.49,37.42 -5.86,54.81 -3.22,16.62 -10.3,33.12 -10.3,54.17z"/>
   <path class="fil4" d="M3951.45 7045.87c0,29.71 53.78,7.09 94.77,49.33 19.42,20.01 27.79,34.55 31.56,63.24 1.62,12.29 3.95,28.23 7.23,42.07 11.17,47 11.11,622.54 0.77,669.89l-9.14 59.12c-3.86,21.81 -21.12,41.61 -38.74,56.06 -60.26,49.42 -95.16,0.22 -82.67,53.85 10.11,4.85 29.83,7.58 45.51,7.58l728.1 0c24.06,0 23.73,-39.99 25.99,-61.23 4.61,-43.36 2.26,-139.65 6.54,-167.9 2.49,-16.48 9.99,-74.24 -13.57,-74.24 -10.24,0 -10.46,1.81 -18.96,3.79 -3.61,15.53 -4.39,41.08 -8.83,55.63 -4.45,14.57 -4.64,2.86 -9.88,20.46 -9.53,31.98 5.68,0.12 -14.61,42.28l-55.52 81c-38.29,34.72 -30.42,21.42 -60.76,37.84 -24.87,13.46 -8.4,7.45 -51.26,13.2 -42.52,5.71 -65.51,22.31 -122.31,4.5 -40.25,-12.62 -33.73,1.69 -65.47,-17.96 -6.92,-4.28 -6.51,-3.26 -12.59,-6.37 -6.68,-3.42 -11.05,-6.19 -18.2,-12.13l-31.25 -37.01 -18.74 -45.73 -11.24 -91.15c-2.72,-20.66 0.04,-40.35 -3.14,-61.33l-1.6 -188.01c0,-18.41 27.59,-11.38 75.84,-11.38 20.81,0 66.47,20.05 84.08,41.06 3.96,4.73 16.35,20.02 18.17,23.55l8.36 21.97c17.93,34.12 14.03,103.03 37.28,103.03 23.45,0 5.76,-79.3 12.42,-127.9 5.2,-37.99 2.75,-205.32 2.75,-258.91 0,-13.5 -8.99,-14.86 -22.75,-15.17 -4.72,20.27 -19.26,96.4 -27.55,108.97 -21.07,31.93 -25.72,40.05 -52.51,49.88 -10.07,3.69 -20.7,11.8 -26.13,11.8l-109.97 0 0 -405.76c0,-8.74 2.64,-11.38 11.38,-11.38 41.36,0 219.52,-4.54 248.13,5.95l50.52 21.53c21.42,15.58 30.43,21.83 48.31,42.69 20.39,23.78 27.09,43.4 39.79,70.18 6.94,14.64 0.99,66.93 34.18,75.8 12.71,-24.02 7.58,-51.32 7.58,-91.01 0,-50.43 -1.89,-118.58 -11.38,-159.27 -8.5,-1.98 -8.72,-3.79 -18.96,-3.79l-690.17 0c-8.74,0 -11.38,2.64 -11.38,11.38z"/>
   <path class="fil4" d="M6662.86 7045.87c19.93,29.77 58.61,18.33 80.33,33.44 11.07,7.7 7.41,10.53 25.85,12.07 2.17,26.11 2.95,-3.5 20.84,43.63 6.75,17.78 13.29,18.34 13.29,54.97l0 693.97c0,27.05 -16.89,77.97 -43.49,100.62 -1.08,0.93 -2.95,2.63 -4.07,3.52 -28.09,22.17 -70.98,20.34 -88.97,32.39 4.13,15.45 14.89,26.54 34.13,26.54l371.64 0c19.33,0 26.64,-10.69 30.34,-26.54 -31.43,-21.05 -32.7,-3.38 -55.92,-16.13l-52.84 -38.17c-13.48,-16.32 -5.01,-10.53 -19.52,-41.15 -15.8,-33.34 -8.24,-334.94 -8.24,-382.35 0,-10.24 1.81,-10.46 3.79,-18.96 9.33,0 93.93,7.38 100.42,9.55l39.37 17.51c7.74,4.36 -1.67,-1.24 6.68,4.69 3.06,2.18 6.65,4.65 8.8,6.37 5.79,4.61 2.98,2.39 7.89,7.27l23.16 26.14c0.48,0.63 1.26,1.42 1.72,2.07 7.57,10.63 5.03,12.06 8.78,21.56 7.83,19.8 8.21,2.61 13.07,32.44 2.69,16.49 1.26,31.55 7.79,49.09l6.13 20.42c4.04,13.2 0.69,11.4 15.09,15.25 19.12,-12.8 11.38,-55.69 11.38,-102.39 0,-41.29 4,-72.89 3.82,-109.95 -0.2,-37.91 -0.02,-75.87 -0.03,-113.79 -0.01,-42.77 3.79,-70.99 3.79,-113.77 -17.3,-11.58 -29.36,-29.86 -33.71,26.96 -1.72,22.44 -16.22,63.36 -28.08,81.89 -21.04,32.88 -59.93,65.7 -97.3,69.56 -33.42,3.45 -62.84,11.2 -98.77,11.2 -9.32,-39.98 -3.79,-336.83 -3.79,-401.97 0,-8.74 2.64,-11.38 11.38,-11.38 37.37,0 182.64,-4.15 210.21,5.95l58.01 25.42c0.6,0.32 7.18,3.63 7.53,3.85 0.69,0.43 1.62,1.05 2.28,1.5 48.44,33.08 61.18,69.11 75.1,87.96 13.11,17.75 3.25,13.56 11.09,30.63 4.27,9.29 5.46,4.19 9.41,17.14 6,19.76 -0.07,36.12 24.55,36.12 33.1,0 5.23,-93.67 3.86,-110.04l-3.81 -94.79c0.43,-26.15 4.19,-41.66 -22.81,-41.66l-667.42 0c-13.42,0 -16.62,4.6 -22.75,11.38z"/>
   <path class="fil4" d="M10166.83 8020.47c-27.98,0 -52.79,-11.06 -74.8,-27.59l-6.27 -5.11c-2.23,-2 -4.98,-4.88 -7.65,-7.52l-66.23 -115.79c-6.05,-13.86 -3.64,-29.91 -7.96,-45.13 -4.47,-15.77 -11.54,-21.6 -11.54,-41.55l0 -109.97c0,-14.79 8.27,-20.1 12.39,-36.91 4.68,-19.15 -1.13,-25.44 9.56,-43.53 5.94,-10.06 4.97,-5.35 8.12,-18.42l21.86 -50.19c0.43,-0.69 1.13,-1.55 1.58,-2.21 0.45,-0.66 1.19,-1.5 1.64,-2.15l4.67 -6.71c2.69,-4.13 0.78,-2.03 4.31,-7.07 4.38,-6.26 7.3,-8.25 12.21,-14.33 16.01,-19.86 22.28,-23.94 42.89,-36.75 8.88,-5.51 7.05,-6.9 16.09,-10.45 5,-1.97 40.83,-6.16 46.13,-5.86 40.12,2.27 67.63,14.34 94.43,45.93l11.62 14.93c28.03,53.79 34.84,165.21 34.84,230.62 0,88.82 -8.29,85.47 -14.53,148.53 -4.82,48.66 2.14,14.04 -16.96,66.46 -3.14,8.64 -28.17,44.63 -41.22,53.58 -22.45,15.39 -43.93,27.21 -75.17,27.21zm41.71 -974.59c7.99,29.94 43.51,18.51 61.87,32.93 33.48,26.28 28.37,45.64 33.66,64.94 22.09,80.52 10.65,226.08 10.65,315.48 -15.04,-1.25 -11.99,-2.16 -22.73,-11.41 -23.34,-20.11 -84.77,-49.27 -98.63,-49.27l-87.22 0c-15.14,0 -14.29,5.02 -24.92,9.22 -17.34,6.86 -23.86,0.78 -41.25,11.83 -36.04,22.91 -33.43,9.5 -84.18,59.92 -0.78,0.78 -2.99,3.04 -3.76,3.82l-17.26 20.67c-0.49,0.61 -1.23,1.46 -1.73,2.06l-23.83 36.84c-9.37,16.95 -32.88,74.09 -34.56,90.59 -1.19,11.64 -1.89,21.49 -4.75,33.17 -24.4,99.79 -1.76,104.36 4.51,168.4l18.35 57.49c4.42,10.33 4.45,6.27 9.59,16.95l41.04 61.35 96.98 66.08c7.7,2.75 1.14,0.13 7.74,3.64 11.1,5.92 -1.6,3.64 18.25,8.3 31.27,7.33 130.06,7.61 159.48,-7.3 20.45,-10.36 13.8,-1.16 34.77,-14.53l18.2 -8.34c21.22,-9.07 6.07,-14.71 35.9,-17.19 0,14.48 -1.17,30.33 1.76,43.75 1.67,7.64 3.63,20.72 24.78,20.72 51.06,0 27.1,-13.55 98.7,-15.07 25.81,-0.55 47.11,-8.2 71.89,-15.33 8.39,-2.41 15.23,-3.14 15.23,-15.11 0,-14.48 1.65,-2.23 -5.36,-9.81 -0.07,-0.07 -11.2,-7.18 -11.61,-7.35 -7.97,-3.26 -17.97,-4.7 -27.21,-6.92 -16.32,-3.91 -22.94,-6.5 -34.92,-25.75 -0.44,-0.7 -0.94,-1.71 -1.37,-2.42 -0.43,-0.71 -0.94,-1.71 -1.37,-2.42 -6.84,-11.34 -9.97,-11.79 -12.21,-25.71l-8.36 -101.61c-4.81,-89.14 0.02,-193.58 0.02,-284.43l0.03 -496.81c0.6,-90.77 -20.16,-38.48 -121.51,-38.03 -23.7,0.11 -32.33,4.16 -51.05,9.62 -23.28,6.79 -32.26,0.09 -43.62,17.06z"/>
   <path class="fil4" d="M9074.68 7444.05c22.18,11.74 32.26,-0.37 65.71,32.89 11.01,10.95 25.3,50.9 25.3,73.29 0,55.41 2.75,344.68 -2.54,376.68 -6.83,41.39 -16.76,57.7 -42.72,74.84 -27.19,17.95 -37.34,-0.2 -47.3,17.65 -11.91,21.32 20.51,27.6 39.46,27.6l227.53 0c8.66,0 18.54,-4.1 22.93,-7.41 11.99,-9.05 4.43,-5.01 11.2,-19.13 -22.77,-15.25 -20.3,-5.23 -40.66,-16.22 -20.76,-11.2 -26.09,-11.46 -35.1,-25.57 -2.57,-4.02 -4.57,-7.56 -7.25,-11.72 -5.46,-8.47 -7.99,-4.16 -7.99,-14.75l0 -383.01c0,-25.24 25.32,-72.11 49.6,-94.51l4.01 -3.57c26.61,-20.39 72.81,-31.46 92.95,-29.29 29.79,3.22 52.95,11.6 74.48,27.69 18.42,13.75 35.73,56.94 36.76,65.63 7.48,63.22 5.82,338.18 0.36,405.98 -2.27,28.16 -20.98,55.15 -47.93,65.83 -19.67,7.79 -23.1,-0.05 -43.37,13.52 2.74,11.77 4.84,10.98 7.58,22.75 19.23,0 20.66,3.79 41.71,3.79 43.86,0 222.38,5.8 250.28,-7.58 9.92,-41.43 -5.94,-17.29 -39.27,-36.58 -0.71,-0.42 -1.61,-1.05 -2.32,-1.47 -0.71,-0.43 -1.64,-1.01 -2.36,-1.44 -44.27,-26.41 -43.33,-57.19 -43.28,-100.82 0.07,-51.03 4.14,-326.73 -4.21,-371.22 -2.8,-14.91 -4.86,-11.1 -9.88,-24.25 -3.66,-9.6 1.5,4.53 -1.82,-5.77 -6.57,-20.42 -14.35,-29.57 -31.92,-47.72l-25.05 -20.46c-20.08,-12.05 -17.85,-13.28 -35.48,-17.62 -69.58,-17.09 8.34,-13.54 -130.56,-13.54 -14.07,0 -21.5,8.77 -40.21,12.89 -1.41,0.31 -9.33,1.75 -9.57,1.81l-60.73 34.08c-9.94,8.02 -19.52,16.39 -29.81,23.28 -0.69,-8.3 -3.97,-27.18 -6.5,-35.21 -14.9,-47.25 -12.56,-38.61 -38.9,-37.18 -49.75,2.7 -48.31,15.39 -110.17,15.41 -24.92,0.01 -47.03,4.81 -52.99,30.43z"/>
   <path class="fil1" d="M5111.87 1032.32l-7.61 -0.47 -111.72 179.91c-2.62,4.69 -2.28,5.37 -4.88,10.29 -5.16,9.76 -2.79,3.96 -7.35,11.61 -0.58,0.98 -2.2,3.83 -2.73,4.86l-19.6 41.07c-0.39,0.77 -0.9,1.74 -1.33,2.47 -6.59,11.35 -4.47,0.13 -14.08,23.84l-33.92 72.26c-0.38,0.78 -0.88,1.75 -1.29,2.5 -5.98,10.96 -8.29,7.01 -12.98,25.19 43.12,9.03 380.23,2.58 454.17,2.58 7.35,-24.69 3.13,-51.85 4.4,-77.45 1.51,-30.4 6.33,-4.82 16.07,-59.23l24.92 -49.95c7.17,-12.78 3.78,-15.29 11.65,-25.53l14.27 -24.26c6.02,-11.49 13.39,-15.68 29.78,-49.13l59.22 -92.72c6.63,-14.9 5.78,-13.65 11.87,-25.36 6.34,-12.2 18.5,-78.53 -18.59,-90.27 -52.96,-16.77 -114.91,2.49 -157.5,35.03l-77.99 65.72c-32.54,31.91 -68.13,25.84 -88.28,28.53 -9.68,1.29 -21.35,3.53 -36.51,3.29 -33.93,-0.53 -27.12,-8.93 -30.01,-14.79z"/>
   <path class="fil4" d="M1118.69 7432.68c7.06,1.65 60.98,20.85 71.04,35.15 6.64,9.43 1.75,3.06 6.47,12.49 5.07,10.14 3.14,5.53 7.18,11.79 11.3,17.54 6.33,29.64 6.33,65.72 -0.01,95.23 -6.41,291.02 3.9,360.15l24.31 59.11c17.69,28.9 20.64,28.1 44.88,46.13l52.87 26.77c10.78,2.29 24.87,0.13 36.53,1.38 31.69,3.4 86.82,5.19 115.46,-10.81 19.17,-10.71 12.83,-0.77 32.05,-13.46l24.35 -13.57c15.27,-10.04 26.48,-26.07 44.86,-30.98 0,77.38 13.61,68.26 53.09,68.26 41.47,0 47.87,-8.12 73.54,-13.67 40.53,-8.78 70.56,14.17 70.56,-28.04 0,-26.03 -39.7,4.14 -62.32,-40.08 -14.47,-28.29 -17.11,-22.97 -17.56,-46.9 -1.98,-105.11 8.8,-451.58 -3.56,-504.6 -29.62,-14.22 -146.82,-7.59 -185.81,-7.59 -14.05,0 -17.13,3.7 -22.75,11.38 3.95,14.82 14.82,15.66 27.25,22.05 9.57,4.92 9.5,4.7 19.37,7.18 22.63,5.69 5.5,-2.85 18.18,8.37 0.58,0.52 1.31,1.38 1.87,1.92 0.79,0.76 3,3.02 3.76,3.83 5.33,5.65 1.39,0.04 5.43,5.95 0.46,0.67 1.07,1.59 1.48,2.31 7.63,13.16 17.46,38.23 17.46,58.38 0,51.62 3.57,315.37 -3.26,345.62 -3.4,15.08 -14.29,54.1 -22.12,65.1l-35.48 40.37c-14.37,10.55 -55.63,26.73 -56.69,26.73l-53.09 0c-9.13,0 -6.47,-3.07 -12.46,-6.5 -11.26,-6.45 -45.88,-14.72 -59.42,-46.76 -29.39,-69.55 -19.13,-105.8 -19.13,-200.82 0,-73.45 8.51,-288.52 -3.79,-341.3 -11.86,-0.99 -13.47,-3.79 -26.55,-3.79l-155.48 0c-17.34,0 -22.36,4.93 -22.75,22.75z"/>
   <path class="fil4" d="M5631.38 7728.47c0,-33.7 9.34,-73.65 13.93,-111.21 4.61,-37.76 3.49,-8.02 15.92,-56.13l24.75 -47.3c5.68,-7.95 6.91,-10.24 12.79,-17.54 14.01,-17.41 32.34,-45.27 59.82,-57.74 30.23,-13.73 70.35,-8.97 100.61,-2.35 17.77,3.89 5.43,-0.51 17.46,9.08 43.94,35.03 55.15,49.36 79.15,95.29 20.41,39.05 5.55,14.44 14.88,42 4.74,14 5.06,6.62 9.71,20.63 4.81,14.48 2.88,33.05 8.44,48.45 14.13,39.11 16.37,109.25 2.82,148.91 -11.97,35.04 -0.26,38.22 -16.05,67.37 -15.59,28.78 4.78,8.12 -19.77,52.28 -2.6,4.67 -2.36,5.44 -4.9,10.27l-17.28 28.22c-0.44,0.68 -1.07,1.6 -1.55,2.25 -0.47,0.64 -1.18,1.5 -1.68,2.11 -2.61,3.24 -8.21,8.81 -12.67,13.88l-14.66 15.68c-1.5,1.43 -14.02,12.24 -14.18,12.36 -0.64,0.47 -1.5,1.17 -2.18,1.62 -33.64,22.17 -77.41,27.17 -111.6,10.45 -8,-3.91 -13.59,-4.73 -21.44,-8.9 -0.75,-0.39 -1.68,-0.97 -2.4,-1.39l-75.3 -91.56c-1.93,-5 -0.29,-3.07 -4.66,-10.51 -19.64,-33.47 -6.05,-21.1 -16.28,-44.4 -17.94,-40.84 -6.55,-32.39 -15.03,-75.98 -3.97,-20.4 -8.65,-32.86 -8.65,-55.82zm-132.72 -30.34c0,61.44 -5.16,48.78 8.17,90.43 4,12.51 1.93,18.14 4.6,33.33 2.36,13.42 30.47,72.87 43.41,89.32 3.66,4.66 4.53,6.51 7.79,11.17 5.46,7.79 10.38,13.86 16.54,21.38 29.16,35.59 37.37,39.52 72.16,64.35l24.34 13.58c25.73,12.16 -11.45,-0.22 37.31,15.78 34.44,11.3 -5.74,10.1 62.5,13.34 27.16,1.29 24.82,7.83 66.07,1.59 22.39,-3.38 40.34,1.53 59.25,-5.22l35.36 -13.94c16.7,-5.18 5.84,-3.44 22.17,-11.96 26.38,-13.77 50.98,-32.27 72.68,-52.46l39.63 -47.59c21.81,-36.19 12.8,-12.45 33.81,-60.99 6.21,-14.34 8.78,-7.87 11.87,-26.05 13.93,-81.95 15.63,15.97 15.63,-151.23 0,-14.69 -2.05,-16.62 -6.89,-27.24 -14.73,-32.36 0.32,-24.37 -16.91,-51.35 -14.24,-22.31 2.03,-7.77 -16.1,-33.2l-62.03 -82.07c-0.55,-0.55 -1.34,-1.35 -1.89,-1.9 -3.59,-3.61 -2.05,-2.29 -5.61,-5.76 -4.05,-3.94 -4.17,-3.87 -7.97,-7.2l-59.44 -42.95c-0.76,-0.4 -1.77,-0.86 -2.56,-1.23 -5.59,-2.63 -6.98,-2.02 -13.67,-5.29 -11.35,-5.55 -6.92,-6.95 -23.28,-10.85 -11.8,-2.81 -16.38,-2.6 -26.91,-7.22 -31.82,-13.97 -73.05,-8.14 -120.8,-8.14 -15.15,0 -14.29,5.03 -24.92,9.21 -10.7,4.22 -17.41,3.12 -27.95,6.18 -16.28,4.73 -6.44,4.65 -22.58,11.55 -26.66,11.38 -46.42,23.41 -67.69,42.28l-27.56 25.53c-26.55,26.2 -48.63,61.21 -66.61,92.67 -4.65,8.14 -2.6,5.09 -4.35,10.81l-3.33 11.84c-5.41,12.81 -10.24,9.42 -12.43,29.28 -5.4,48.95 -11.82,37.01 -11.82,60.23z"/>
   <path class="fil4" d="M2392.86 7409.92c-47.92,0 -91.01,-10.91 -91.01,22.75 0,40 94.8,-0.04 94.8,30.34l-4.52 484.67c-4.16,28.43 -16.03,19.72 -18.23,46.24 -11.6,0.96 -8.68,0.29 -17.33,5.42 -39.15,23.2 -26.85,2.46 -54.71,21.13 4.47,19.2 14.53,26.54 37.92,26.54l216.15 0c21.06,0 22.49,-3.79 41.72,-3.79 2.74,-11.77 4.84,-10.99 7.58,-22.75 -23.71,-15.88 -14.95,-2.38 -52.77,-23.07 -28.87,-15.8 -42.03,-61.1 -42.03,-86.91l0 -458.85c37.08,0 90.91,4.18 125.14,-3.79 3.59,-7.48 5.48,-17.51 7.59,-26.55 -8.21,-5.5 -12.63,-11.38 -26.55,-11.38l-106.18 0c0,-53.92 -4.51,-229.1 5.44,-271.39 8.69,-36.91 13.29,-64.83 47.33,-85.39 25.08,-15.15 2.84,-11.05 68.58,-11.05 9.8,0 18.22,14.37 23.15,22.35l38.76 56.05c26.78,24.91 63.06,21.75 80.88,-7.69 13.05,-21.58 12.03,-60.78 -16.91,-86.61l-39.76 -20.92c-28.26,-7.65 -80.2,-2.52 -112.78,-1.23l-131.63 54.19c-6.44,4.55 -11.37,8.4 -16.73,13.6 -0.56,0.55 -1.3,1.39 -1.85,1.94l-13.22 13.32c-1.79,2.02 -11.48,14.65 -13.06,17.28 -5.77,9.66 -4.26,11.61 -9.87,20.46 -20.2,31.87 -4.69,-0.84 -13.34,51.12 -2.99,17.96 -7.31,35.84 -8.56,52.11 -3.77,49.17 6.45,137.17 -3.96,181.85z"/>
   <path class="fil4" d="M10629.47 7042.09c0,20.81 10.88,13.23 29.41,19.89 13.65,4.9 14,12.81 31.27,14.24 2.23,26.83 11.73,16.36 17.6,39.28 3.93,15.34 1.2,42.5 1.23,59.44 0.03,23.97 4.11,31.52 4.01,56.66l-0.06 591.7c0.14,26.59 -3.69,37.86 -3.97,60.5 -0.22,17.75 2.18,48.26 -0.12,64.34 -2.93,20.55 -16.58,20.47 -18.69,45.78 -24.09,2 -13.65,9.54 -34.55,14.75 -21.58,5.38 -20.06,0.11 -37.51,11.79 4.47,19.2 14.53,26.54 37.92,26.54 35.46,0 229.68,3.19 250.4,-3.67 14.59,-4.84 10.98,-5.4 15.05,-22.87 -11.84,-7.93 -9,-6.67 -23.77,-10.36 -22.09,-5.52 -6.8,-0.6 -23.99,-10.14 -19.58,-10.86 -24.48,-12.49 -32.87,-35.39 -5.89,-16.07 -13.77,-29.83 -14.32,-53.94l0.15 -352.82c0,-79.45 5.44,-514.02 -3.79,-553.66 -18.38,0 -41.56,-0.5 -54.08,2.8 -25.4,6.69 -6.21,5.26 -46.02,10.87 -29.23,4.11 -93.31,-4.15 -93.31,24.25z"/>
   <path class="fil4" d="M8691.67 7428.89c34.76,0 63.72,18.26 84.67,44.27 33.12,41.13 21.43,34.77 30,64.8 8.54,29.92 10.47,-10.84 10.47,65.37 -51.9,0 -227.53,5.04 -265.45,-3.79l12.85 -63c13.08,-24.28 8.34,-23.01 18.95,-37.93 24.51,-34.44 19.5,-28.46 47.54,-51.05 18.08,-14.56 -2.41,-7.31 25.55,-12.38 6.14,-1.12 28.3,-6.3 35.41,-6.3zm-280.62 273.04c0,23.29 -1.91,55.31 2.61,77.02l17.39 77.42c9.8,18.52 10.64,31.59 22,50.05 0.43,0.71 0.99,1.67 1.41,2.39l6.54 12.42c0.43,0.69 1.08,1.59 1.53,2.26l91.63 94.19c4.76,2.49 5.65,2.33 10.27,4.9l58.26 25.17c29.26,9.79 159.58,9.67 185.41,-5.67 8.8,-5.23 1.35,-2.08 10,-5.17 21.74,-7.76 45.32,-18.68 62.85,-35.75l28.69 -35.77c16.65,-25.28 34.86,-62.95 28.54,-92.82l-15.02 -4.26c-9.29,9.18 -9.13,19.42 -15.02,31.1 -3.23,6.43 -1.19,0.55 -6.14,9.03 -12.95,22.24 -13.38,34.79 -37.72,53.3l-50.16 25.69c-6.09,3.28 -3.27,6.49 -12.47,6.49l-79.64 0c-7.98,0 -25.45,-11.27 -35.01,-14.29 -17.01,-5.38 -4.18,0.1 -17.69,-8.85l-87.19 -94.84c-10.49,-16.46 -5.29,-21.96 -14.83,-38.25 -11.67,-19.93 -6.77,-19.93 -10.98,-42.11 -3.84,-20.27 -12.53,-25.83 -12.53,-40.56l0 -109.97 348.88 0c55.71,0 42.4,-26.59 32.49,-59.04 -9.48,-31.07 -1.53,-23.9 -17.61,-62.02 -0.34,-0.8 -2.88,-7.79 -3.11,-8.27l-10.54 -16.01c-11.88,-18.83 -23.99,-35.35 -41.48,-49.53l-77.35 -40.21c-13.56,-4.33 -14.59,-11.41 -30.3,-11.41 -33.17,0 -76.82,-6.7 -106.88,6.88l-26.29 7.85c-32.47,8.03 -89.56,49.01 -113.21,76.4l-43.94 62.24c-0.42,0.72 -0.97,1.68 -1.41,2.39l-14.67 34.62c-5.3,15.83 -6.85,6.61 -11.13,23 -5.16,19.8 -4.9,41.09 -10.59,57.67 -4.15,12.12 -5.6,17.71 -5.6,32.32z"/>
   <path class="fil4" d="M10993.52 7432.68c8.46,1.97 12.65,3.03 19.47,7.07l15.97 10.57c20.61,14.05 21.13,29.53 31.03,48.61l39.55 93.17c5.62,12.26 1.53,9.42 5.25,21.3 2.6,8.3 -0.21,0.94 3.56,7.82 3.92,7.18 2.27,1.49 5.86,9.3l42 117.27c9.01,15.57 6.54,23.64 13.88,39.21 5.24,11.11 4.18,2.45 9.26,17.28 2.19,6.38 2.82,13.92 5.48,21.06l31.94 85.62c5.19,12.72 8.51,11.98 12.4,29.31 5.16,23 10.9,13.58 14.51,38.58 7.97,55.29 15.3,-6.46 15.3,98.47 0,17.71 -11.34,25.26 -14.6,42.29 -4.76,24.82 2.21,4.61 -8.69,21.65 -7.98,12.47 -9.67,27.32 -17.14,39.74 -19.84,33.01 -34.16,54.98 -90.22,30.77 -20.61,-8.9 -43.96,-18.47 -67.06,-6.03 -31.18,16.79 -22.23,39 -22.23,72.57 29.03,19.44 35.78,35.95 102.65,26.86 9.37,-1.28 14.18,-1.38 19.79,-3.01 13.71,-3.98 11.26,-6.22 21.33,-12.8l29.79 -27.1c17.42,-20.52 32.46,-52.04 39.86,-77.7 4.59,-15.91 9.23,-13.57 14.2,-31.31 1.33,-4.74 2.72,-13.19 4.69,-18.06 4.35,-10.75 3.67,-4.83 8.23,-14.52 5.89,-12.53 4.3,-20.61 11.32,-34.19l11.96 -33.54c5.52,-14.61 8.27,-13.73 12.61,-32.9 5.18,-22.92 7.95,-14.63 13.75,-31.76 7.42,-21.92 14.03,-49.99 25.32,-69.48 9.49,-16.39 4.94,-18.49 10.54,-34.96 5.42,-15.94 9.33,-15.46 13.05,-32.45 5.6,-25.57 7.26,-13.51 13.56,-31.94 1.77,-5.19 2.64,-12.18 4.77,-17.98 3.31,-9.01 2.92,-5.06 7.68,-15.08 6.42,-13.54 4.86,-23.3 10.49,-35.01 14.35,-29.9 25.84,-71.1 31.72,-82.05l12.77 -36.52c6.63,-20.78 1.32,-2.14 7.85,-14.91 6.81,-13.32 3.44,-20.03 11.53,-33.98l36.26 -81.3c16.99,-32.65 20.43,-39.46 54.5,-59.26 14.53,-8.44 21.84,-6.96 23.41,-25.88 -13.24,-3.09 -12.77,-7.59 -26.54,-7.59l-147.89 0c-15.75,0 -23.72,2.35 -30.34,11.38 4.37,16.37 5.29,9.2 20.65,17.28 4.97,2.62 21.4,13.48 25.23,16.47l9.75 9.21c15.19,21.12 7.21,59.91 4.99,85.93 -1.76,20.78 -6.31,14.32 -11.91,29.81 -6,16.59 -3.24,24.88 -12.72,44.17l-8.98 32.74c-4.95,13.45 -0.7,0.95 -6.54,12.42 -7.25,14.26 -4.16,19.19 -9.26,32.46 -0.33,0.85 -0.79,1.82 -1.16,2.63 -0.36,0.79 -0.92,1.72 -1.32,2.48l-12.82 36.48c-4.04,13.86 -1.61,4.58 -7.7,15.05 -8.34,14.31 -7.31,28.32 -15.15,41.74 -9.1,15.6 -4.77,21.85 -16.62,44.05 -7.04,13.19 -3.9,20.35 -9.56,32.15 -33.05,-17.49 -10.17,-12.15 -23.37,-41.09 -6.45,-14.14 -5.94,-2.48 -10.32,-20.02 -10.27,-41.19 -11.42,-29.75 -16.06,-48.4l-33.13 -95.8c-3.91,-21.93 -12.08,-27.72 -16.15,-48.32 -3.62,-18.27 -8.85,-14.08 -16.35,-48.12 -7.78,-35.35 -17.34,-18.69 -17.34,-85.05 0,-9.72 0.88,-20.59 3.57,-26.77 3.56,-8.2 -0.04,-3.25 6.56,-8.61 20.04,-16.27 44.88,-11.68 50.54,-32.88 -6.62,-9.03 -14.59,-11.38 -30.34,-11.38l-216.15 0c-17.34,0 -22.35,4.93 -22.75,22.75z"/>
   <path class="fil4" d="M4865.36 7743.64c0,52.75 12.77,60.69 15.21,98.55 0.67,10.41 -0.86,6.96 2.12,16.84 5.12,17.03 1.13,3.24 6.56,12.4l16.6 36.49c34.29,52.74 51.7,83.61 109.64,114.09 14.04,7.39 52.35,26.02 66.8,28.01 35.06,4.83 140.55,8.83 166.48,-6.4l9.5 -5.67c0.86,-0.36 1.89,-0.68 2.79,-1 0.93,-0.33 2.01,-0.52 2.97,-0.83 18.42,-5.88 36.91,-20.42 51.75,-35.46l27.11 -37.36c1.48,-2.62 3.31,-7.01 3.66,-7.71l2.52 -5.06c9.72,-17.47 18.9,-35.15 5.47,-55.2 -21.88,5.1 -21.72,28.86 -47.92,65.84 -6.41,9.05 -3.12,6.96 -12.07,14.48 -3.45,2.9 -13.48,10.88 -16.98,13.36 -38.69,27.35 -69.21,20.09 -112.63,20.09l-49.69 -26.15c-26.78,-18.02 -47.35,-41.89 -65.17,-67.56 -32.12,-46.25 -31.98,-84.38 -43.75,-111.74 -3.91,-9.11 -3.77,-6.52 -6.32,-20.22 -5.61,-30.17 -5.86,-119.88 5.12,-146.51 8.69,-21.08 5.64,-17.43 10.13,-42.96l54.47 -112.38c34.9,-38.35 70.42,-61.09 124.25,-47.59 23.27,5.84 28.11,14.56 37.15,34.9l22.7 56.93c2.18,4.16 1.55,3.38 3.44,7.93 3.85,9.27 1.11,5.76 6.05,12.91l18.98 18.94c28.78,21.95 71.34,10.39 80.26,-26.3 6.88,-28.28 9.5,-10.57 1.38,-43.96 -8.08,-33.23 -23.91,-46.68 -53.14,-64.42l-4.86 -2.73c-32.33,-19.39 -30.59,-11.41 -56.91,-22.74 -32.47,-13.97 -85.77,-6.91 -122.03,-6.91 -14.7,0 -7.01,0.59 -14.91,4.04l-44.04 12.85c-26.31,9.03 -48.82,25.12 -72.33,41.44 -3.09,2.15 -8.43,5.69 -11.09,7.88 -0.85,0.7 -3.18,2.85 -3.99,3.59l-82.63 118.36c-5.39,17.37 -0.34,12.59 -9.09,28.84 -7.98,14.83 -23.59,105.3 -23.59,128.1z"/>
   <path class="fil4" d="M3147.51 7436.47c0,25.01 34,11.24 53.14,15.12 14.48,2.93 11.64,4.51 11.77,22.36l-0.57 455.63c-0.04,39.47 13.8,74.48 42.79,97.52l19.69 10.64c0.73,0.41 1.68,0.97 2.4,1.39 32.18,19.01 19.38,8.38 56.02,12.24 24.8,2.61 73.93,2.73 98.44,-1.31 14.83,-2.45 13.38,-5.12 23.18,-10.95 29.07,-17.29 54.24,-24.62 71.66,-69.35 10.71,-27.53 -30.78,-22.84 -33.43,8.98 -21.13,2.31 -2.85,-1.84 -12.47,6.49 -31.61,27.34 -38.84,23.85 -78.54,23.85 -4.29,0 -41.25,-19.32 -50.59,-32.84 -7.44,-10.78 -21.46,-46.26 -21.46,-58.17l0 -466.44 140.31 0c13.92,0 18.33,-5.88 26.55,-11.38l0 -22.75c-13.24,-3.09 -12.77,-7.59 -26.55,-7.59l-140.31 0c0,-43.63 4.6,-149.82 -3.79,-185.81 -18.76,-4.37 -27.23,-8.87 -35.99,5.72l-4.39 10.78c-9.75,20.57 -4.43,0.12 -9.41,20.93 -1.42,5.93 -1.65,12.8 -3.52,19.23 -3.98,13.74 -1.9,4.87 -7.69,15.06 -11.16,19.61 3.63,2.81 -24.45,47.6l-48.47 53.93c-16.67,12.77 -4.95,7.45 -19.45,14.68 -13.07,6.52 -24.86,7.07 -24.86,24.44z"/>
   <path class="fil4" d="M7466.8 7447.85c41.07,9.57 20.3,-2.98 47.92,16.54l6.84 4.54c4.94,3.83 3.73,2.78 7.76,7.41 40.74,46.78 28.49,272.01 28.49,320.39 0,12.42 0.49,25.76 0.13,38.05 -0.69,22.87 -10.27,127.54 -22.9,143.96l-10.23 12.53c-2.35,2.48 -3.46,3.31 -6.03,5.35 -0.87,0.69 -3.53,2.49 -4.44,3.14 -0.18,0.13 -6.6,4.6 -6.71,4.67 -23,12.77 -44.63,-3.31 -44.63,23.63 0,8.84 10.12,18.96 18.96,18.96l250.28 0c12.45,0 23.43,-5.94 24.92,-16.43 2.78,-19.6 2.17,-3.13 -2.16,-10.11 -8.7,-17.15 -6.88,-2.21 -37.68,-19.21l-4.94 -2.65c-14.48,-6.94 -10.39,-1.29 -21.05,-13.07l-8.67 -10.3c-16.37,-23.22 -14.88,-195.11 -14.88,-242.98 0,-46.36 6.95,-98.58 7.69,-128.84 1.08,-44.31 6.85,-59.28 18.79,-94.97 4.2,-12.53 1.56,-4.81 8.08,-14.68 16.95,-25.68 1.78,-12.4 25.53,-31.35 0.62,-0.49 1.43,-1.25 2.06,-1.74 0.88,-0.68 3.27,-2.76 4.21,-3.37 24.08,-15.54 45.33,-1.68 61.95,10.12 16.32,11.59 31.42,36.94 42.46,44.77 18.74,13.29 32.24,19.93 51.61,10.11 1.09,-0.55 15.98,-10.17 16.18,-10.36 3.77,-3.46 1.53,-0.65 5.14,-6.23 19.92,-30.82 18.35,-35.09 4.6,-63.47 -7.59,-15.68 -2.16,-8.21 -14.48,-19.65 -34.34,-31.92 -53.28,-24.05 -108.68,-24.05l-58.07 21.57c-20.25,13.24 -64.79,38.2 -67.07,65.66 -10.74,-7.87 -8.06,-16.76 -10.25,-31.46 -8.94,-59.88 -18.12,-64.41 -64.11,-54.28 -19.8,4.36 -24.99,13.27 -73.53,13.71 -39.76,0.36 -53.1,4.65 -53.1,34.12z"/>
   <path class="fil4" d="M1888.5 7447.85c80.67,18.79 64.47,-58.02 64.47,204.78 0,89.72 0.49,179.57 -0.02,269.27 -0.19,32.33 -0.83,31.65 8.66,55.8 9.46,24.06 4.01,17.58 22.24,38.44 13.54,15.5 15.82,14.71 28.62,20.67 44.54,20.72 6.87,8.98 77.6,17.26 24.08,2.82 38.11,-2.86 60.13,-3.23 29.14,-0.5 52.87,-13.92 73.85,-28.54 12.79,-8.9 26.06,-20.68 33.44,-34.81 1.74,-3.32 21.52,-35.28 2.64,-35.28 -22.76,0 -16.12,8.87 -37.82,30.43l-41.81 26.45 -37.92 0c-18.15,0 7.31,1.04 -22.46,-11.67 -14.54,-6.21 -28.68,-13.23 -35.36,-32.9l-11.6 -26.32c-9.71,-25.24 -6.43,-431.56 -6.43,-475.18 0,-34.73 170.65,18.12 170.65,-34.13 0,-12.26 -13.76,-18.96 -26.54,-18.96l-140.31 0 -3.79 -102.39c0,-60.69 9.07,-87.22 -22.75,-87.22 -10.4,0 -11.92,6.38 -17.37,16.76 -21.26,40.45 -1.34,21.61 -22.71,60.72 -6.12,11.2 -2.39,5.38 -6.25,16.5 -3.29,9.49 -2.16,6.65 -7.68,15.07 -71.48,109.09 -101.47,69.37 -101.47,118.48z"/>
   <path class="fil4" d="M8001.49 7444.05c27.35,14.48 19.02,-3.74 55.93,23.71 18.39,13.68 16.97,16.65 22.42,34.46 4.56,14.9 12.66,23.33 12.66,36.64l0 379.22c0,10.87 -8.19,24.98 -11.37,37.93 -0.77,3.13 -3.53,15.37 -4.71,18.04 -2.97,6.71 0.02,1.26 -4.32,7.06l-7.31 7.85c-32.27,31.91 -37.9,11.96 -67.09,31.51 3.58,15.36 7.25,26.54 26.55,26.54l242.7 0c20.46,0 29.87,-9.22 30.34,-30.34 -49.13,-11.45 -84.5,-30.22 -87.25,-87.19 -3.87,-80.2 0.03,-260.6 0.03,-352.7l0.09 -132.82c0.09,-20.91 -2.6,-26.25 -3.88,-41.62 -55.04,-12.82 -65.29,6.27 -129.14,11.17 -38.07,2.92 -68.02,-2.13 -75.64,30.55z"/>
   <path class="fil4" d="M2756.91 7447.85c40.94,9.54 20.42,-2.95 47.92,16.54 0.66,0.47 1.63,1.04 2.28,1.51 0.66,0.47 1.64,1.02 2.3,1.5 9.21,6.72 19.08,17.15 22.24,27.06 1.84,5.77 3.35,19.32 4.82,25.52 22.51,94.71 10.14,255.23 7.61,356.36 -0.6,24.23 -6.77,86.79 -20.24,104.91 -36.24,48.74 -70.74,12.71 -70.74,46.82 0,8.84 10.12,18.96 18.96,18.96l250.28 0c12.45,0 23.43,-5.94 24.92,-16.43 2.78,-19.6 2.17,-3.13 -2.17,-10.11 -6.29,-12.41 -6.66,-4.71 -42.62,-21.85 -17.83,-8.5 -12.19,-2.07 -24.05,-17.66 -14.8,-19.46 -9.81,-10.64 -15.75,-56.3l-4.52 -496.04c0.16,-34.52 -4.57,-30.06 -41.99,-30.06 -24.07,0 -36.23,11.03 -87.43,14.96 -18.16,1.39 -36.13,0.05 -49.44,3.65 -19.03,5.16 -22.4,7.39 -22.4,30.69z"/>
   <path class="fil6" d="M6135.76 213.28c5.68,4.15 1.55,2.7 11.1,5.34 30.99,8.57 148.93,-9.54 186.05,-10.67 149.09,-4.53 257.7,-2.1 404.97,10.48 28.72,2.45 66.07,1.05 93.4,8.47 28.88,7.84 71.11,7.51 91.08,14.43 29.65,10.27 53.84,8.52 81.88,20.24 14,5.85 30.77,4.17 43.22,10.13 22.44,10.74 7.54,6.64 38.77,13.04 25.28,5.19 12.59,9.57 33.67,14.85l59.51 21.86c11.69,7.02 -1.93,2.98 16.23,9.09 28.84,9.71 59.6,29.45 83.9,46.25 6.3,4.35 1.92,0.7 6.87,5.2l12.96 12.31c0.63,0.44 1.64,0.98 2.29,1.42 31.55,21.7 83.45,65.54 98.08,101.35l12.58 24.26c5.03,7.62 2.57,5.37 5.57,10.24 11.41,18.5 14.57,7.93 12.72,42.62 -124.92,7.85 -89.47,-8.27 -138.1,-12.55 -27.25,-2.4 -31.57,-14.19 -57.29,-17.29 -20.54,-2.48 -69.82,-31.5 -56.5,8.63 4.64,13.98 8.76,12.65 17.95,20.59l53.04 33.76c21.79,12.55 20.71,-1.13 27.5,22.58 33.95,1.74 75.37,25.44 65.76,52.71 -8.89,25.23 -104.52,21.4 -124.1,13.33 -16.29,-6.72 -0.66,-5.68 -25,-7.31 -12.35,-0.83 -21.81,-1.91 -31.52,-2.68 -11.07,-0.88 -22.35,-0.02 -33.29,-0.82 -21.74,-1.6 -16.65,-3.7 -30.94,-8.67 -20.31,-7.08 -36.93,-3.29 -59.83,-7.98 -16.99,-3.48 -8.87,-5.86 -24.29,-9.97 -8.72,-2.32 -25,-2.91 -33.57,-3.81 -30.81,-3.23 -31.08,-14.03 -55.85,-15.19 -89.83,-4.22 -54.19,6.6 -90.4,14.57 -13.5,2.97 -13.97,-0.12 -25.63,7.56l-9.02 6.43c-4.86,2.83 -7.91,3.5 -12.59,6.24 -16.52,9.68 -33.85,21.54 -46.84,36.07 -0.52,0.58 -1.18,1.5 -1.7,2.09l-32.09 43.79c-0.45,0.7 -1.07,1.63 -1.54,2.31l-41.15 75.52c-4.42,11.33 -1.99,18.43 -7.34,31.69 -4.04,10.01 -7.75,12.15 -9.89,23.04 -2.98,15.16 0.32,18.29 -6.54,32.35 -16.47,33.7 -11.56,88.88 -10.47,129.39 0.79,29.29 8.18,51.11 21.68,68.97 0.45,0.59 1.23,1.4 1.71,1.97 0.48,0.57 1.29,1.36 1.79,1.91l21.86 19.61c25.94,19.57 57.37,18.77 79,27.32 12.57,4.97 8.06,7.96 22.06,10.27 44.58,7.38 98.33,1.29 143.48,2.65 32.03,0.97 28.39,11.32 56.75,13.01 36.64,2.18 40.55,5.75 67.95,16.91 10.69,4.35 19.36,12.83 24.21,22.81 1.22,2.52 1.89,5.66 3.11,8.48l9.73 16.3c0.46,0.8 0.91,1.85 1.35,2.66 0.43,0.8 0.82,1.88 1.24,2.66 5.27,9.75 1.11,3.87 7.34,10.64l22.05 19.42c22.67,16.23 55.58,39.6 84.45,21.26 26.26,-16.68 40.46,-38.73 34.1,-68.48l-11.26 -27.37c-10.71,-31.98 -23.08,-5.42 -18.95,-53.52 5.69,-4.02 0.63,-2.49 11.88,-6.51 7.09,-2.53 2.5,-1.37 13.31,-2.66 15.78,-1.9 10.78,-0.26 24.46,-4.43 21.3,-6.5 23.81,-7.44 37.14,-22.97 10.27,-11.96 10.99,-29.05 8.25,-50.45l-56.28 -82.35c-0.53,-0.58 -1.3,-1.41 -1.82,-1.99l-16.81 -17.16c-0.82,-0.75 -3.17,-2.96 -3.97,-3.73 -16.3,-15.67 -43.32,-60.71 -62.01,-63.27 1.28,14.12 10.09,20.01 19.51,33.16l15.79 15.32c3.62,3.22 3.56,3.51 5.55,5.5 0.56,0.56 1.3,1.42 1.87,1.99l3.94 3.91c4.6,4.4 5.16,4.4 9.61,8.99l9.34 9.84c0.55,0.54 1.43,1.27 1.97,1.81l44.84 56.64c7.25,11.03 7.22,18.77 12.6,30.26 9.47,20.23 6.39,35.22 -12.75,53.7 -19.77,19.08 -55,0.56 -77.17,21.5 -12.85,12.13 -15.17,28.35 -4.83,41.96l9.89 13.04c20.16,31.89 17.06,39.74 13.1,88.4 -21.16,2.78 -57.59,11.99 -77.84,-4.9 -24.53,-20.46 -52.41,-50.69 -55.98,-84.4 -31.31,-4.83 -8.09,-10.37 -29.86,-17.48 -8.79,-2.88 -13.57,-0.72 -23.35,-4.02l-14.18 -8.87c-15.36,-8.93 -65.58,-4.62 -88.46,-4.7 -30.23,-0.11 -65.45,1.72 -95.07,-1.12 -22.48,-2.15 -19.98,-6.59 -41.29,-9.32 -14.6,-1.87 -25.15,-2.92 -39.81,-5.39 -20.83,-3.51 -51.17,-20.12 -64.53,-29.69 -39.64,-28.38 -53.51,-96.25 -41.62,-145.34 9.26,-38.25 11.59,-21 15.63,-79.25 26.46,-13.78 7.56,-21.69 15.96,-46.72 6.54,-19.47 -0.96,0.99 7.74,-11.77 8.92,-13.09 2.64,-15.44 10.68,-30.88 29.18,-56.02 26.42,-57.35 74.79,-103.68 0.58,-0.56 1.42,-1.32 2,-1.87 0.58,-0.54 1.44,-1.28 2.02,-1.81 4.48,-4.17 4.47,-4.21 9.46,-9.11 26.05,-25.62 29.68,-14.15 55.45,-28.91 22.82,-13.07 125.27,-13.96 154.16,0.73 21.37,10.86 45.04,3.89 68.83,11.14 35.46,10.8 30.78,9.11 70.41,13.05 25.51,2.54 38.24,10.4 69.71,13.4 46.91,4.47 217.04,20.13 148.27,-61.07 -23.7,-27.98 -50.26,-26.21 -75.77,-45.86 -14,-10.79 -12.69,-4.87 -27.31,-13.96l-34.34 -25.27c-3.24,-1.98 -4.29,-2.41 -8.11,-4.86 -0.72,-0.47 -2.32,-0.54 -2.84,-2.06 -0.54,-1.57 -2.02,-1.34 -2.89,-2.17 49.78,-2.48 35.99,7.83 63.67,13.98 22.43,4.99 11.98,0.81 29.1,9.41 16.89,8.5 143.12,30.37 158.42,-7.49 7.02,-17.36 -9.13,-39.8 -15.57,-51.86 -14.31,-26.79 -16.65,-34.67 -37.77,-56.39l-46.11 -48.9c-15.67,-14.22 -30.55,-30.69 -49.6,-40.56 -4.71,-2.44 -3.06,-1.3 -7.69,-4.11l-16.1 -11.22c-22.95,-18.75 -11.36,-7.44 -36.53,-19.7 -10.92,-5.32 -8.74,-6.29 -24.67,-13.1 -12.81,-5.47 -10.47,-6.6 -26.47,-12.71 -17.33,-6.62 -11.56,-7.94 -23.16,-13.22l-56.86 -19.3c-20.49,-4.1 -13.17,-5.48 -26.54,-11.18 -11.82,-5.04 -21.48,-2.73 -32.09,-6.17 -18.1,-5.86 -3.93,-1.5 -12.22,-7.17 -14.65,-10.02 -44.81,-5.9 -60.73,-14.87 -22.44,-12.64 -53.57,-7.58 -80.93,-9.99 -0.39,-0.49 -0.9,-1.37 -1.07,-1.56l-2.32 -2.77c-15.18,-13.06 -59.14,-9.23 -76.3,-9.67 -36.95,-0.96 -55.81,-9.97 -84.75,-13.62 -53.25,-6.71 -142.76,-2.3 -199.6,-2.46l-299.62 4.71c-33.03,1.56 -43.32,9.92 -90.95,10.86z"/>
   <path class="fil4" d="M6249.51 7682.96c0,26.01 -6.67,98.6 15.17,98.6l276.83 0c24.87,0 15.17,-55.54 15.17,-109.98 0,-11.65 -11.11,-15.17 -22.75,-15.17l-265.45 0c-12.26,0 -18.96,13.76 -18.96,26.54z"/>
   <path class="fil7" d="M6292.59 4695.8c-4.06,-38.35 -4.84,-687.98 -0.98,-725.47 15.69,3.04 7.16,4.3 25.6,15.22 0.71,0.43 1.73,0.9 2.45,1.33 0.73,0.43 1.72,0.93 2.45,1.37l169.52 120.09c0.69,0.43 1.72,0.9 2.4,1.33l227.43 165.76c0.67,0.49 1.51,1.21 2.17,1.71l32.35 21.83c28.19,16.49 16.12,22.78 85.17,20.29 29.18,-1.06 46.51,-10.23 63.67,-23.18 6.23,-4.7 12.84,-11.36 19.42,-19.76l148.02 -216.06c0.47,-0.9 0.91,-1.89 1.33,-2.82 0.43,-0.93 0.76,-1.98 1.15,-2.91 2.09,-5.02 1.04,-4.41 2.88,-8.31 4.82,-10.23 12.46,-9.34 26.85,-37.34l33 -46.28c16.05,-23.41 13.19,-26.06 55.73,-22.61l124.83 35.67c38.89,19.58 57.81,22.18 110.33,52.87l113.4 67.39c36.23,14.54 -1.62,13.41 42.48,17.06 23.79,1.97 20.11,4.2 33.66,9.28l74.99 0.94c12.65,-2.74 12.74,-7.5 31.55,-9.6 23.09,-2.58 63.01,0.95 79.64,-4.63 22.42,-7.52 -6.92,-7.81 26.7,-12.44 63.53,-8.75 23.34,-12.4 68.15,-16.5 42.03,-3.85 49.95,-3.44 38.2,56.35 -4.19,21.29 -4.19,11.94 -9.85,21.26 -7.19,11.83 -1.93,14.52 -34.1,64.92l-63.87 106.92c-2.46,4.04 -3.85,8.05 -6.69,12.51l-28.38 50.82c-4.77,10.27 5.75,-8.23 -2.54,5.21 -0.43,0.7 -1.11,1.6 -1.57,2.25 -0.44,0.62 -1.25,1.41 -1.72,2 -10.87,13.62 -8.53,1.16 -9.39,27 6.77,-4.7 3.9,-3.01 9.05,-8.74 10.87,-12.1 10.72,-18.21 18.46,-31.1 35.71,-59.42 57.12,-101.86 98.16,-163.13l23.6 -40.61c11.37,-22.9 24.96,-48.22 27.12,-74.78l-1.69 -22.74c-13.57,-40.63 -87.8,-8.54 -112.55,-2.23 -18.83,4.8 -35.71,5 -54.78,9.75 -52.77,13.14 -175.33,31.74 -221.59,0.47 -37.38,-25.27 -34.91,-7.65 -82.79,-46.24 -13.8,-11.12 -40.99,-30.02 -58.09,-36.77l-161.65 -65.57c-26.97,-6.45 -66.18,-22.65 -108.51,-17.39 -19.44,9.67 -12.86,9.06 -23.6,25.85 -3.68,5.75 -4.84,6.42 -9.58,13.15 -2.15,3.06 -2.29,3.63 -4.68,6.87l-15.74 21.95c-7.23,10.28 -5.9,5.07 -11.6,14.26l-4.99 10.08c-0.45,0.8 -0.99,1.78 -1.46,2.57l-102.02 148.76c-2.06,3.18 -2.01,3.71 -4.35,7.23l-15.24 22.14c-4.46,7.58 0.43,0.23 -4.46,7.16l-14.57 19.76c-0.52,0.64 -1.29,1.47 -1.81,2.08 -15.33,18.26 -20.35,39.99 -42.57,56.09 -11.63,8.43 -38.76,21.2 -55.72,21.97 -6.79,0.31 -16.35,0.28 -23.24,0.2l-24.59 -4c-7.97,-3.91 -0.65,-2.14 -15.9,-9.63l-53.9 -37.28c-0.81,-0.43 -1.77,-0.97 -2.57,-1.43l-48.35 -31.89c-6,-4.01 -5.59,-4.54 -13.37,-9.63 -35.87,-23.44 -61.03,-47.65 -92.15,-66.64l-53.17 -38.19c-6.55,-5.16 -8.46,-5.63 -15.74,-10.74 -10.55,-7.41 -18.7,-13.94 -27.87,-21.47 -3.03,-2.48 -3.4,-2.56 -6.5,-5.08l-20.71 -16.11c-37.66,-21.9 -132.68,-92.54 -132.79,-92.61 -20.72,-11.09 -0.44,-4.42 -18.95,-2.84 -17.29,1.48 -9.69,68.55 -9.69,87.29 0,57.62 -3.47,623.16 2.22,635.67 4.26,9.36 2.04,4.74 8.5,10.08z"/>
   <path class="fil8" d="M7290.49 3799.13c41.7,-8.18 24.06,4.26 74.13,-13.68 9.6,-3.44 23.77,-4.07 36.37,-5.99l103.84 -28.69c33.52,-5.45 54.07,5.3 67.67,22.47 3.11,18.07 3.07,34.92 2.32,53.22 -1.94,47.54 -33.33,54.66 2.6,135.75 14.54,32.81 48.42,47.8 77.87,55.96 24.65,6.83 1.1,12.06 69.36,13.91 24.2,0.66 83.49,2.35 104.58,-2.81 15.18,-3.71 18.72,-8.4 40.99,-12.26 29.92,-5.19 20.41,-11.1 40.62,-15.64 13.92,-3.12 19,0.63 29.83,-8.12 29.36,-23.71 23.63,-13.17 50.06,-33.63 0.65,-0.51 1.52,-1.23 2.2,-1.72l63.61 -49.48c38.26,-47.98 64.85,-66.92 92.23,-101.72 17.34,-22.04 64.15,-71.84 76.7,-92.93 11,-18.49 27.73,-40.65 44.33,-55.38 11.34,-10.07 33.04,-29.73 46.51,-34.03 8.76,-2.79 16.44,-2.51 22.64,-4.33 19.67,-5.8 8.13,-12.94 45.47,-11.52 58.61,2.22 102.56,6.43 161.05,-0.52 26.58,-3.16 32.29,-1.78 40.4,-20.54 -24.27,4.44 -0.26,-0.95 -16.24,5.83 -17.88,7.59 -19.02,5.97 -40.92,7.09 -122.28,6.23 -190.97,-25.1 -260.59,41.39 -50.97,48.68 -61.98,79.74 -100.82,126.88l-14.26 20.14c-3.8,5.33 0.29,0.3 -7.1,7.49l-11.4 11.35c-41.5,41.63 -84.5,92.63 -129.77,125.12 -11.87,8.51 -24.22,17.61 -37.26,26.6 -35.25,24.3 -58.49,29.64 -87.82,43.97 -28.92,14.14 -125.94,27.17 -172.05,19.52 -36.91,-6.12 -88.22,-18.82 -111.24,-53.21 -2.84,-4.25 -10.81,-16.64 -11.58,-18.28 -5.08,-10.88 -8.01,-42.43 -7.68,-56.76 0.92,-39.55 34.39,-142.35 -30.56,-152.37 -52.11,-8.04 -66.43,6.29 -85.74,12.19 -10.36,3.16 -21.63,3.06 -32.22,4.11 -28.08,2.8 -19.39,11.86 -48.89,14.71 -34.45,3.32 -27.71,0.92 -53.51,11.07 -17.28,6.79 -41.78,5.7 -62.14,4.96 2.82,-20.36 7.14,-23.74 21.53,-41.93l3.47 -3.97c7.03,-8.83 0.46,0.77 7.14,-10.93l20.88 -28.97c0.49,-0.69 1.19,-1.59 1.7,-2.26l20.59 -32.27c4.56,-6.33 2.87,-4.24 7.22,-11.54l101.85 -152.88c6.24,-9.09 9.42,-15.84 16.65,-25.39 5.99,-7.92 12.54,-17.56 16.87,-25.29l8.87 -16.71c27.62,-34.58 22.94,-37.29 37.53,-53.3l42.22 -56.11c0.47,-0.72 1.12,-1.62 1.6,-2.33l6.25 -9.22c2.69,-4.81 3.16,-7.66 6.2,-13.06 3.52,-6.26 12.93,-18.83 17.28,-24.38 11.73,-14.98 22.38,-33.34 33.65,-49.7l69.86 -100.83c10.74,-15.77 13.32,-9.72 17.01,-23.32 1.34,-4.93 4.55,-31.72 4.57,-36.96 0.15,-43.8 -7.77,-49.12 -16.47,-66.04 -10.11,-19.67 1.39,-6.99 -15.48,-29.2 -8.03,-10.57 -7.97,-16.49 -23.51,-18.33 8.57,30.77 52.19,59.16 45.08,129.04 -2.32,22.76 -30.17,46.89 -46.4,79.05l-104.77 152.02c-11.26,14.83 -11.57,20.38 -26.55,34.71 -14.77,14.13 -5.01,2.3 -13.58,18.87l-37.81 58.26c-9.05,10.53 -1.43,0.72 -9.2,12.84l-3.09 4.8c-0.23,0.34 -4.37,5.77 -4.93,6.59 -3.29,4.82 -5.5,9.57 -8.45,14.13l-36.03 51.68c-7.36,8.46 -4.03,2.74 -8.19,9.56l-161.85 245.07c-14.02,18.66 -10.02,8.27 -6.15,33.29l40.8 -5.09z"/>
   <path class="fil9" d="M8926.93 3481.21c14.25,-6.35 19.56,-19.94 31.38,-28.49 17.68,-12.79 38.99,-16 56.01,-27.41 30.39,-20.36 94.06,10.8 119,34.85 9.15,8.82 13.3,7.5 23.72,15.03l6.25 5.04c13.97,10.47 31.18,16.6 34.64,34.82 1.69,8.89 0.04,21.07 0.01,30.64l-5.2 3.9c-9.95,8.56 -8.89,14.03 -15.76,25.77 -0.44,0.74 -1.14,1.61 -1.59,2.32l-17.92 35.61c-0.43,0.77 -0.92,1.72 -1.35,2.5 -0.43,0.79 -0.83,1.81 -1.27,2.62 -9.7,17.9 0.42,9.66 -19.99,18.29 -1.56,31.44 -1.88,19.25 -16.84,39.02 -0.51,0.66 -1.14,1.61 -1.66,2.27 -0.52,0.66 -1.25,1.55 -1.78,2.19l-6.98 7.73c-11,17.43 -2.06,11.2 -14.27,24.48 -0.51,0.56 -1.36,1.24 -1.85,1.8 -17.71,20.53 -16.19,32.3 -40.73,61.54 -8.91,10.62 -5.05,11.61 -10.35,22.94l-33.4 35.77c-0.55,0.58 -1.35,1.4 -1.89,1.98 -0.53,0.57 -1.37,1.36 -1.89,1.93 -8.64,9.48 -4.3,3.13 -9.17,15.78 -7.13,18.49 -21.6,28.17 -33.73,43.25 -0.5,0.62 -1.18,1.54 -1.69,2.16l-176.82 210.46c-0.56,0.58 -1.39,1.35 -1.94,1.93 -0.55,0.57 -1.34,1.39 -1.89,1.96l-109.93 98.48c-0.62,0.51 -1.49,1.23 -2.12,1.72 -0.64,0.51 -1.56,1.15 -2.2,1.64 -0.65,0.49 -1.61,1.08 -2.26,1.57l-70.66 61.87c-20.11,14.23 -28.38,14.71 -44.57,31.13l-10.24 9.38c-0.67,0.54 -1.58,1.2 -2.26,1.72 -0.67,0.51 -1.63,1.12 -2.3,1.61l-19.29 17.58c-2.96,2.18 -6.04,3.12 -10.02,5.57l-29.14 19.51c-0.53,0.54 -1.19,1.46 -1.72,2.02 -9.59,10.23 -12.44,17.54 -24.97,24.66l-70.12 44.16c-6.96,3.41 -3.51,0.32 -10.22,4.7l-15.55 11.32c-10.41,5.89 -5.81,3.72 -14.14,12l-18.76 7.87 -1.28 17.54 15.15 0c7.92,-14.98 7.3,-12.25 38.75,-29.5 7.31,-4.01 2.12,-0.11 9.8,-5.37l4.2 -3.39c16.05,-12.26 23.24,-11.84 43.46,-28.59l40.11 -28.15c10.23,-6.67 20.86,-16.87 31.64,-25.24l59.88 -46.29c0.6,-0.51 1.43,-1.26 2.03,-1.76l21.5 -16.42c3.92,-2.69 3.95,-1.99 9.35,-5.82l172.03 -154.1c0.56,-0.54 1.38,-1.31 1.93,-1.85l193.39 -216.17c4.15,-5.34 1.41,-1.18 6.67,-8.5l4.56 -6.82c0.48,-0.63 1.16,-1.53 1.66,-2.14l44.96 -57.43c0.44,-0.68 1.05,-1.62 1.5,-2.29l11.54 -15c0.68,-0.88 2.56,-3.47 3.26,-4.33l3.52 -4.07c8.31,-9.76 5.16,-5.93 12.38,-17.96l92.54 -138.78c2.15,-5.28 0.12,-2.41 3.24,-8.14 6.47,-11.88 0.24,0 6.5,-8.66l22.65 -38.02c0.39,-0.78 0.82,-1.81 1.24,-2.56 0.4,-0.73 1.01,-1.65 1.45,-2.34l33.66 -61.13c7.61,-13.06 11.27,-11.67 11.73,-35.17 -18.94,-18.27 -21.88,-24.47 -44.46,-41.14l-17.79 -12.55c-0.71,-0.44 -1.68,-1 -2.39,-1.45l-51.51 -30.74c-43.21,-13.49 -17.74,-15.56 -73.61,-14.63 -22.13,0.37 -21.99,-0.15 -37.51,7.89 -21.23,11 -30.23,14.1 -50.01,32.8 -15.71,14.85 -11.69,8.29 -18.36,27.05z"/>
   <path class="fil4" d="M8149.39 7004.16c-32.07,0 -51.47,20.54 -63.86,46.16 -30.31,62.71 53.44,136.63 106.2,79.6 20.65,-22.31 27.94,-50.21 17.32,-79.23l-12.96 -21.19c-7.73,-9.81 -32.62,-25.35 -46.7,-25.35z"/>
   <path class="fil4" d="M2832.76 7072.42c0,23.46 4.24,41.8 21.18,58.45 56.73,55.77 138.62,-19.21 102.27,-87.1l-2.58 -5c-19.13,-35.5 -75.53,-52.21 -106.11,-4.68 -8.69,13.51 -14.76,17.31 -14.76,38.33z"/>
   <path class="fil8" d="M7157.15 912.47c-2.65,-18.87 -1.54,-10 -9.98,-20.09l-3.6 -4.15c-0.5,-0.72 -1.1,-1.66 -1.56,-2.42 -9.87,-16.31 -31,-49.96 -19.07,-69.43 21.2,-17.14 38.84,-17.1 66.56,-4.51 12.78,5.8 20.5,6.49 32.28,13.45 53.02,31.35 28.45,22.97 57.29,40.56l58.97 51.75c0.56,0.55 1.33,1.37 1.89,1.92l27.23 25.24c9.95,7.49 4.6,3.01 12.66,10.65l117.93 86.68c20.68,13.72 38.94,22.91 65.21,6.08 1.88,-35.46 0.47,-4.89 -13.91,-46.64l-9.26 -17.37c-6.85,-12.99 -0.83,-9.34 -14.06,-26.69l-30.27 -61.2c-14.42,-19.73 -6.59,1.12 -10.77,-31.64 -5.36,-41.95 -27.76,-40.95 3.46,-85.1 14.66,-20.72 17.66,-23.86 40.02,-26.38 55.35,-6.23 72.01,13.8 117.31,61.84 16,16.97 27.11,35.45 47.06,45.79l-1.05 -15.15c-22.08,-11.06 -7.86,-13.41 -45.39,-46.37l-34.21 -34.61c-16.43,-17.52 -59.35,-33.14 -82.65,-26.38l-30.28 14.66c-0.27,0.19 -10.96,10.41 -11.44,10.96l-19.32 25.91c-16.87,29.33 9.44,79.15 11.77,93.28 4.09,24.84 5.47,10.21 18.36,49.85 5.11,15.75 -0.08,1.38 7.67,12.94l30.12 61.99c0.91,1.36 2.58,2.53 4.52,7.01 4.36,10.08 3.29,20.6 2.98,32.15 -31.04,0.7 -14.84,-2.8 -38.43,-15.5l-110.89 -82.92c-0.92,-0.68 -3.46,-2.77 -4.35,-3.47 -0.12,-0.09 -4.99,-4.02 -6.32,-5.08l-51.32 -50.89c-0.61,-0.53 -1.48,-1.28 -2.08,-1.81l-104.21 -71.17c-5.24,-2.85 -0.58,-0.4 -7.79,-3.83 -86.93,-41.38 -149.64,-3.15 -86.64,76.24 3.43,4.32 5.02,7.07 12.84,13.99 0.82,0.73 5.35,4.47 6.09,5.05 6.7,5.29 -1.56,0.98 6.62,4.79z"/>
   <path class="fil6" d="M7967.31 1596.54c5.36,14.73 6.06,10.02 13.56,20.78 9.35,13.39 16.43,46.76 34.12,51.73 14.08,3.95 42.2,4.14 53.6,-2.47 14.01,-8.12 24.99,-27.85 35.18,-36.58 22.06,-18.89 6.38,-2.71 17.38,-27.04 3.35,-7.42 7.06,-8.95 9.99,-20.02 23.18,-87.49 7.33,-55.11 2.08,-92.3 -1.13,-8 -1.41,-18.55 -2.02,-26.84l-10.71 -8.26c-12.2,-12.48 -22.87,-29.06 -39.01,-37.78 -11.72,-6.33 -10.87,-4.12 -26.39,-2.58 -7.56,12.57 -17.2,25.4 -22.76,37.95 -15.05,33.96 -33.18,52.25 -65.93,26.73 -11.89,-9.27 -19.75,-15.14 -30.52,-23.09 -66.95,-49.42 -103.48,-61.93 -150.65,10.7 -4.38,6.75 -4.99,10.46 -9.57,17.19 -18.05,26.55 -9.89,22.18 -21.27,29.06 -2.01,-35.02 6.97,-35.17 16.71,-60.04l63.69 -103.91c13.79,-19.54 8.87,-2.49 22.62,-33.72 -13.75,0.45 -5.79,-2.33 -20.18,14.3l-14.66 19.08c-17.12,21.23 -10.37,23.25 -30.75,41.81l-7.67 6.7c-9.16,11.96 2.45,6.61 -13.43,28.19l-29.57 61.44c-10.81,18.35 -10.96,31.65 -6.46,57.44 12.93,2.27 9.91,6.31 27.59,-17.07 12.94,-17.11 26.16,-49.9 39.87,-61.54 27.08,-22.99 7.22,-39.52 63,-34.08 9.69,0.95 13.62,1.5 21.38,6.09l65.96 48.29c1.68,2.4 2.83,5.99 3.55,8.16 82.32,9.24 51.09,9.5 102.39,-62.06 32.78,-3.71 42.84,15.09 54.49,36.85 30.7,57.37 11.83,126.91 -33.51,170.58 -3.22,3.1 -23.4,20.37 -24.77,20.79 -40.99,8.12 -47.13,-14.18 -62.93,-45.75 -8.3,-16.6 -1.86,-14.43 -24.34,-18.72z"/>
   <path class="fil7" d="M5259.73 1002.46c-5.8,17.69 -6.54,11.83 -23.82,21.22 -13.36,7.26 -9.09,10.62 -33.01,12.49 -32.08,2.5 -63.02,4.18 -91.03,-3.85 2.89,5.86 -3.92,14.26 30.01,14.79 15.17,0.24 26.83,-2 36.51,-3.29 20.15,-2.68 55.73,3.38 88.28,-28.53l77.99 -65.72c42.59,-32.54 104.54,-51.8 157.5,-35.03 37.09,11.74 24.93,78.08 18.59,90.27 -6.09,11.72 -5.24,10.46 -11.87,25.36l-59.22 92.72c-16.39,33.45 -23.77,37.63 -29.78,49.13l-14.27 24.26c-7.87,10.24 -4.48,12.75 -11.65,25.53l-24.92 49.95c-9.75,54.41 -14.57,28.83 -16.07,59.23 -1.27,25.6 2.95,52.76 -4.4,77.45 -73.94,0 -411.06,6.45 -454.17,-2.58 7.61,19.89 68.1,11.7 107.49,11.65l358.65 -0.88 0.82 -8.35c-14.05,-52.97 16.34,-137.17 42.3,-184.38 4.31,-7.85 7.96,-13.93 12.28,-21.72l58.44 -96.32c19.8,-26.78 42.53,-63.78 54.43,-93.88 2.69,-6.79 5.23,-19.75 6.55,-27.35 17.1,-97.96 -75.85,-96.89 -108.47,-85.77 -11.92,4.07 -10.87,4.45 -26.95,7.92 -25.59,5.51 -4.18,-0.47 -22.05,11.15 -8.47,5.51 -14.69,5.61 -23.26,11.17l-21.14 13.15c-35.46,20.11 -17.71,13.93 -36.44,31.72l-37.32 28.49z"/>
   <path class="fil9" d="M5104.27 1031.85l7.61 0.47c28.01,8.03 58.95,6.35 91.03,3.85 23.92,-1.86 19.65,-5.23 33.01,-12.49 17.28,-9.39 18.01,-3.53 23.82,-21.22 -19.72,2.82 -21.19,13.43 -46.99,24.3 -17.47,7.35 -53.82,3.97 -74.09,3.97 1.15,-24.77 -0.77,-16.95 8.88,-31.58l11.19 -19.03c0.54,-0.71 1.3,-1.53 1.87,-2.2 21.98,-26 24.24,-14.81 25.32,-43.23 13,8.14 4.97,10.81 14.43,-10.34 6.01,-13.43 0.44,-4.15 8.14,-12.49 0.12,-0.13 10.26,-9.23 12.1,-10.76l4.27 -3.36c15.92,-13.51 9.5,-15.23 27.81,-33.16 0.56,-0.55 1.5,-1.21 2.05,-1.75 16.1,-15.84 -4.64,-5.12 31.19,-40.61 16.56,-16.4 7.47,-15.52 26.71,-30.42l20.41 -20.33c0.56,-0.64 1.33,-1.46 1.92,-2.07 0.59,-0.62 1.41,-1.38 2.01,-1.97l40.2 -39.59c25.86,-22.31 11.24,-25.01 72.43,-75.43 0.59,-0.48 1.41,-1.25 1.99,-1.74 0.58,-0.5 1.4,-1.28 1.98,-1.79 17.54,-15.61 12.54,-15.51 27.35,-29.27 18.16,-16.85 15.51,-12.56 17.3,-28.01 -12.64,4.4 -7.49,1.02 -17.27,9.05 -0.63,0.52 -1.37,1.31 -1.95,1.85l-64.2 60.69c-0.55,0.56 -1.35,1.34 -1.9,1.89 -0.78,0.78 -3.06,2.97 -3.83,3.75l-64.43 64.5c-3.71,3.69 -3.89,3.87 -7.58,7.58 -0.55,0.56 -1.33,1.36 -1.88,1.91l-188.68 224.67c-19.84,24.41 -10.4,18.02 -21.06,32.02 -8.85,11.62 -17.61,18.55 -21.12,32.33z"/>
  </g>
 </g>
</svg>
