<?xml version="1.0" encoding="UTF-8"?>
<!DOCTYPE svg PUBLIC "-//W3C//DTD SVG 1.1//EN" "http://www.w3.org/Graphics/SVG/1.1/DTD/svg11.dtd">
<!-- Creator: CorelDRAW (Versión OEM) -->
<svg xmlns="http://www.w3.org/2000/svg" xml:space="preserve" width="10.0996mm" height="11.6952mm" version="1.1" style="shape-rendering:geometricPrecision; text-rendering:geometricPrecision; image-rendering:optimizeQuality; fill-rule:evenodd; clip-rule:evenodd"
viewBox="0 0 144.96 167.86"
 xmlns:xlink="http://www.w3.org/1999/xlink"
 xmlns:xodm="http://www.corel.com/coreldraw/odm/2003">
 <defs>
  <style type="text/css">
   <![CDATA[
    .fil0 {fill:#E6E6E6;fill-rule:nonzero}
   ]]>
  </style>
 </defs>
 <g id="Capa_x0020_1">
  <metadata id="CorelCorpID_0Corel-Layer"/>
  <g id="_3027106660080">
   <g>
    <g>
     <path class="fil0" d="M119.92 90.04l13.68 0c6.26,0 11.36,-5.1 11.36,-11.36l0 -22.38c0,-5.36 -3.74,-9.86 -8.74,-11.05 -4.34,-12.41 -12.38,-23.5 -22.9,-31.5 -11.82,-8.99 -25.94,-13.75 -40.84,-13.75 -14.89,0 -29.01,4.76 -40.84,13.75 -10.52,8.01 -18.56,19.1 -22.9,31.5 -5,1.18 -8.74,5.69 -8.74,11.05l0 22.38c0,6.26 5.1,11.36 11.36,11.36l13.68 0c2.93,6.14 7.01,11.62 11.97,16.17 -19.68,0.09 -35.66,16.12 -35.66,35.81l0 25.84 142.27 0 0 -25.84c0,-19.7 -15.98,-35.73 -35.66,-35.81 4.96,-4.55 9.04,-10.03 11.97,-16.16zm15.06 -33.73l0 22.38c0,0.76 -0.62,1.38 -1.39,1.38l-8.59 0 0 -12.57c0,-0 0,-0.01 0,-0.01 0,-0.43 -0.01,-0.87 -0.02,-1.31 0,-0 0,-0.01 0,-0.01 -0,-0.05 -0,-0.1 -0,-0.15 -0,-0.05 -0,-0.1 -0.01,-0.15l-0.01 -0.24c-0.01,-0.25 -0.02,-0.5 -0.03,-0.75 0,-0 0,-0 0,-0 -0.01,-0.12 -0.02,-0.24 -0.02,-0.36 -0,-0.02 -0,-0.03 -0,-0.05l-0.02 -0.28c-0.01,-0.2 -0.02,-0.41 -0.04,-0.62 0,0 0,-0 0,-0 -0.01,-0.18 -0.03,-0.36 -0.05,-0.54l-0.01 -0.16c-0.02,-0.18 -0.03,-0.37 -0.05,-0.55 -0.02,-0.22 -0.05,-0.44 -0.07,-0.65l-0.01 -0.12c-0.01,-0.13 -0.03,-0.25 -0.04,-0.38 -0.03,-0.28 -0.07,-0.56 -0.11,-0.83l-0.01 -0.1c-0.02,-0.17 -0.05,-0.33 -0.07,-0.49 -0.04,-0.24 -0.07,-0.48 -0.11,-0.72 -0.03,-0.16 -0.05,-0.32 -0.08,-0.48 -0.21,-1.21 -0.46,-2.4 -0.75,-3.58 -0,-0.02 -0.01,-0.04 -0.01,-0.05l10.11 0c0.77,-0 1.39,0.62 1.39,1.38zm-113.53 -1.32c-0.3,1.23 -0.56,2.49 -0.78,3.75 -0.01,0.08 -0.03,0.17 -0.04,0.25l-0.01 0.05c-0.13,0.79 -0.24,1.58 -0.33,2.38 -0.01,0.05 -0.01,0.11 -0.02,0.17l-0 0.04c-0.02,0.22 -0.05,0.43 -0.07,0.65 0,0 0,0 -0,0 -0.02,0.2 -0.04,0.39 -0.05,0.59l-0.01 0.15c-0.02,0.2 -0.03,0.39 -0.05,0.58 -0.01,0.19 -0.03,0.38 -0.04,0.58l-0.02 0.28c0,0 0,0.01 0,0.01 -0.01,0.14 -0.02,0.28 -0.02,0.42 -0.01,0.26 -0.02,0.52 -0.03,0.78l-0.01 0.16c-0,0.03 -0,0.05 -0,0.08 -0.02,0.53 -0.03,1.05 -0.03,1.58l0 12.57 -8.59 0c-0.76,0 -1.39,-0.62 -1.39,-1.39l0 -22.38c0,-0.76 0.62,-1.39 1.39,-1.39l10.11 0c-0.01,0.02 -0.01,0.04 -0.02,0.06zm-1.9 -10.04c3.91,-9.11 10.19,-17.22 18.13,-23.26 10.07,-7.66 22.1,-11.72 34.8,-11.72 12.69,0 24.73,4.05 34.8,11.72 7.94,6.04 14.23,14.15 18.13,23.26l-5.48 0c-8.45,-17.72 -26.54,-29.99 -47.44,-29.99 -20.9,0 -38.99,12.27 -47.44,29.99l-5.48 0zm88.97 -0.06c-5.91,4.05 -12.94,6.25 -20.17,6.25 -9.54,0 -18.51,-3.72 -25.25,-10.46l-3.28 -3.29 -3.51 3.04c-4.92,4.26 -11.22,6.61 -17.74,6.61 -1.11,0 -2.21,-0.07 -3.3,-0.2 7.28,-13.06 21.23,-21.91 37.2,-21.91 15.17,0 28.5,7.98 36.04,19.95zm25.12 97.14l0 15.87 -122.33 0 0 -15.87c0,-14.25 11.59,-25.85 25.85,-25.85l11.55 0 0 1.26c0,13.1 10.66,23.76 23.76,23.76 13.1,0 23.76,-10.66 23.76,-23.76l0 -1.26 11.55 0c14.25,0 25.85,11.59 25.85,25.85zm-74.93 -23.81c0.01,0 0.02,0.01 0.04,0.01 0.49,0.13 0.97,0.25 1.46,0.37 0.14,0.03 0.29,0.07 0.43,0.1 0.39,0.09 0.78,0.18 1.18,0.26 0.13,0.03 0.25,0.05 0.38,0.08 0.51,0.1 1.01,0.19 1.52,0.28 0.1,0.02 0.19,0.03 0.29,0.05 0.42,0.07 0.84,0.13 1.27,0.19 0.15,0.02 0.3,0.04 0.45,0.06 0.43,0.05 0.86,0.1 1.29,0.15 0.09,0.01 0.18,0.02 0.28,0.03 0.36,0.03 0.71,0.06 1.07,0.09 0.03,0 0.07,0.01 0.1,0.01 0.13,0.01 0.25,0.02 0.38,0.03 0.13,0.01 0.27,0.02 0.4,0.02 0.12,0.01 0.24,0.02 0.36,0.02 0.07,0 0.14,0.01 0.2,0.01 0.21,0.01 0.43,0.02 0.64,0.03 0.15,0.01 0.3,0.01 0.45,0.02 0.08,0 0.17,0.01 0.25,0.01 0.44,0.01 0.89,0.02 1.33,0.02 0.44,0 0.89,-0.01 1.33,-0.02 0.08,-0 0.17,-0.01 0.25,-0.01 0.15,-0 0.3,-0.01 0.45,-0.02 0.21,-0.01 0.43,-0.02 0.64,-0.03 0.07,-0 0.13,-0.01 0.2,-0.01 0.12,-0.01 0.24,-0.01 0.36,-0.02 0.13,-0.01 0.27,-0.01 0.4,-0.02 0.13,-0.01 0.25,-0.02 0.38,-0.03 0.03,-0 0.07,-0.01 0.1,-0.01 0.36,-0.03 0.71,-0.06 1.07,-0.09 0.09,-0.01 0.19,-0.02 0.28,-0.03 0.43,-0.04 0.86,-0.09 1.29,-0.15 0.15,-0.02 0.3,-0.04 0.45,-0.06 0.42,-0.06 0.85,-0.12 1.27,-0.19 0.1,-0.02 0.19,-0.03 0.29,-0.05 0.51,-0.08 1.01,-0.18 1.52,-0.28 0.13,-0.03 0.25,-0.05 0.38,-0.08 0.39,-0.08 0.79,-0.17 1.18,-0.26 0.14,-0.03 0.29,-0.07 0.43,-0.1 0.49,-0.12 0.98,-0.24 1.46,-0.37 0.01,-0 0.02,-0.01 0.04,-0.01 -0.4,7.25 -6.43,13.02 -13.77,13.02 -7.34,0 -13.37,-5.77 -13.77,-13.02zm26.77 -27.95c-1.83,-3.58 -5.55,-6.04 -9.84,-6.04l-6.32 0c-6.09,0 -11.05,4.96 -11.05,11.05 0,6.09 4.96,11.05 11.05,11.05l6.32 0c4.31,0 8.04,-2.48 9.87,-6.09l14.25 -0.09c-7.39,6.19 -16.91,9.92 -27.28,9.92 -23.47,0 -42.56,-19.09 -42.56,-42.56 0,-0.36 0,-0.71 0.01,-1.08l0.01 -0.42c0.01,-0.21 0.01,-0.42 0.02,-0.63 0,-0.09 0.01,-0.18 0.02,-0.27l0.01 -0.17c0.01,-0.2 0.02,-0.4 0.04,-0.6 0,-0 0,-0 0,-0.01 0.01,-0.11 0.02,-0.23 0.03,-0.34l0.02 -0.21c0.01,-0.17 0.03,-0.34 0.04,-0.51 0.01,-0.13 0.03,-0.27 0.04,-0.4l0.01 -0.12c0.01,-0.11 0.03,-0.23 0.04,-0.34 0.01,-0.06 0.01,-0.11 0.02,-0.17 0.02,-0.16 0.04,-0.31 0.06,-0.47l0.01 -0.07c0,-0.03 0.01,-0.05 0.01,-0.08 0.02,-0.14 0.04,-0.28 0.06,-0.42 0.03,-0.17 0.05,-0.34 0.08,-0.51 0.03,-0.17 0.06,-0.34 0.08,-0.51 0.03,-0.18 0.07,-0.36 0.1,-0.55 0.03,-0.15 0.06,-0.3 0.09,-0.45 0.04,-0.19 0.07,-0.37 0.12,-0.56 0.03,-0.14 0.06,-0.29 0.09,-0.43 0.04,-0.19 0.09,-0.39 0.13,-0.58 0.03,-0.14 0.07,-0.29 0.11,-0.43 0.05,-0.19 0.09,-0.37 0.14,-0.55 0.03,-0.1 0.06,-0.21 0.09,-0.32 2.35,0.46 4.74,0.7 7.16,0.7 7.42,0 14.63,-2.22 20.72,-6.33 8.16,6.76 18.33,10.43 29.06,10.43 8.72,0 17.21,-2.5 24.49,-7.12 0.04,0.12 0.08,0.25 0.13,0.38l0.04 0.11c0.02,0.06 0.04,0.12 0.06,0.17 0.06,0.2 0.12,0.4 0.18,0.59 0.04,0.12 0.08,0.25 0.11,0.37 0.06,0.2 0.11,0.4 0.17,0.61 0.03,0.13 0.07,0.26 0.1,0.39 0.05,0.19 0.1,0.38 0.15,0.58 0.04,0.14 0.07,0.28 0.1,0.43 0.04,0.19 0.09,0.38 0.13,0.57 0.03,0.14 0.06,0.29 0.09,0.43 0.04,0.18 0.08,0.37 0.11,0.55 0.03,0.16 0.06,0.32 0.09,0.48 0.03,0.18 0.06,0.35 0.1,0.54 0,0.02 0.01,0.03 0.01,0.05 0.02,0.14 0.05,0.29 0.07,0.43 0.03,0.17 0.06,0.35 0.08,0.52 0.03,0.18 0.05,0.37 0.08,0.56l0 0.01c0.02,0.16 0.04,0.31 0.06,0.46 0.02,0.17 0.04,0.34 0.06,0.52l0.02 0.14c0.01,0.12 0.03,0.25 0.04,0.37 0.01,0.05 0.01,0.1 0.01,0.16 0.01,0.12 0.02,0.24 0.03,0.35l0.02 0.2c0.01,0.11 0.02,0.23 0.03,0.33 0.02,0.22 0.03,0.43 0.04,0.65l0.01 0.15c0.01,0.08 0.01,0.17 0.02,0.26 0.01,0.28 0.02,0.55 0.03,0.83l0.01 0.22c0.01,0.36 0.01,0.71 0.01,1.08 0,0 0,0 0,0.01 0,8.3 -2.39,16.06 -6.52,22.62l-23.04 0.15zm-8.77 5.01c0,0.59 -0.48,1.08 -1.08,1.08l-6.32 0c-0.59,0 -1.08,-0.48 -1.08,-1.08 0,-0.59 0.48,-1.08 1.08,-1.08l6.32 0c0.59,0 1.08,0.48 1.08,1.08z"/>
    </g>
   </g>
  </g>
 </g>
</svg>
