<?xml version="1.0" encoding="UTF-8"?>
<!DOCTYPE svg PUBLIC "-//W3C//DTD SVG 1.1//EN" "http://www.w3.org/Graphics/SVG/1.1/DTD/svg11.dtd">
<!-- Creator: CorelDRAW (Versión OEM) -->
<svg xmlns="http://www.w3.org/2000/svg" xml:space="preserve" width="13.8574mm" height="13.8574mm" version="1.1" style="shape-rendering:geometricPrecision; text-rendering:geometricPrecision; image-rendering:optimizeQuality; fill-rule:evenodd; clip-rule:evenodd"
viewBox="0 0 52.88 52.88"
 xmlns:xlink="http://www.w3.org/1999/xlink"
 xmlns:xodm="http://www.corel.com/coreldraw/odm/2003">
 <defs>
  <style type="text/css">
   <![CDATA[
    .fil0 {fill:#E6E6E6;fill-rule:nonzero}
   ]]>
  </style>
 </defs>
 <g id="Capa_x0020_1">
  <metadata id="CorelCorpID_0Corel-Layer"/>
  <g id="_3027569626720">
   <g>
    <path class="fil0" d="M26.44 0c-14.59,0 -26.44,11.86 -26.44,26.44 0,6.74 2.52,13.14 7.12,18.04l-5.89 5.54 0 2.86 25.2 0c14.59,0 26.44,-11.86 26.44,-26.44 0,-14.59 -11.86,-26.44 -26.44,-26.44zm0 49.47l-19.66 0 5.25 -4.9 -1.83 -1.83c-4.39,-4.35 -6.78,-10.15 -6.78,-16.29 0,-12.71 10.32,-23.03 23.03,-23.03 12.71,0 23.03,10.32 23.03,23.03 0,12.71 -10.32,23.03 -23.03,23.03z"/>
    <path class="fil0" d="M26.14 33.52c-2.73,-1.75 -5.03,-4.14 -6.7,-6.95l2.86 -2.86 0 -7.63 -9.21 0c0,13.35 10.79,24.14 24.14,24.14l0 -9.17 -8.61 0 -2.47 2.47z"/>
   </g>
  </g>
 </g>
</svg>
